<?xml version="1.0"?>
<svg xmlns:xlink="http://www.w3.org/1999/xlink" xmlns="http://www.w3.org/2000/svg" version="1.1" viewBox="0.0 0.0 695.9133858267717 231.00787401574803" fill="none" stroke="none" stroke-linecap="square" stroke-miterlimit="10">
  <clipPath id="p.0">
    <path d="m0 0l695.9134 0l0 231.00787l-695.9134 0l0 -231.00787z" clip-rule="nonzero"/>
  </clipPath>
  <g clip-path="url(#p.0)">
    <path fill="#000000" fill-opacity="0.0" d="m0 0l695.9134 0l0 231.00787l-695.9134 0z" fill-rule="evenodd"/>
    <path fill="#f4cccc" d="m7.35958 7.514436l208.0945 0l0 102.3937l-208.0945 0z" fill-rule="evenodd"/>
    <path fill="#d9ead3" d="m7.35958 109.908134l208.0945 0l0 102.3937l-208.0945 0z" fill-rule="evenodd"/>
    <path fill="#d9ead3" d="m28.08921 110.65842l0 0c0.11912727 -38.879646 20.074852 -70.271484 44.61145 -70.17709c24.53659 0.09438324 44.395897 31.63937 44.395897 70.51947z" fill-rule="evenodd"/>
    <path stroke="#000000" stroke-width="1.0" stroke-linejoin="round" stroke-linecap="butt" stroke-dasharray="1.0,3.0" d="m28.08921 110.65842l0 0c0.11912727 -38.879646 20.074852 -70.271484 44.61145 -70.17709c24.53659 0.09438324 44.395897 31.63937 44.395897 70.51947z" fill-rule="evenodd"/>
    <path fill="#000000" fill-opacity="0.0" d="m49.588715 120.488396c0.4029045 -4.4504395 0.6516037 -19.366776 2.4174232 -26.702644c1.7658234 -7.335861 4.766342 -13.715256 8.177502 -17.312546c3.4111595 -3.59729 8.285088 -4.4148483 12.289459 -4.271202c4.0043716 0.14365387 8.865715 1.7930679 11.736755 5.1331177c2.871048 3.340042 4.2438126 9.13871 5.4895096 14.907158c1.245697 5.7684402 1.6559982 14.572144 1.9846878 19.703499c0.32868958 5.131363 -0.0104522705 9.237213 -0.012542725 11.084656" fill-rule="evenodd"/>
    <path stroke="#000000" stroke-width="1.0" stroke-linejoin="round" stroke-linecap="butt" d="m49.588715 120.488396c0.4029045 -4.4504395 0.6516037 -19.366776 2.417427 -26.702644c1.7658195 -7.335869 4.7663383 -13.715256 8.177498 -17.312546c3.4111595 -3.59729 8.285088 -4.414856 12.289459 -4.2711945c4.004364 0.14364624 8.865715 1.7930603 11.736755 5.1331024c2.871048 3.3400497 4.2438126 9.138725 5.4895096 14.907166c1.2457047 5.7684326 1.6559906 14.572136 1.9846878 19.703506c0.16435242 2.5656738 0.1617279 4.874977 0.11777496 6.773796c-0.005493164 0.23735046 -0.011634827 0.4682846 -0.018180847 0.6925049l-0.006088257 0.19290924" fill-rule="evenodd"/>
    <path fill="#000000" stroke="#000000" stroke-width="1.0" stroke-linecap="butt" d="m91.77756 119.604996l-1.0892487 -1.158844l1.0284348 3.123085l1.2196579 -3.0534897z" fill-rule="evenodd"/>
    <path fill="#000000" fill-opacity="0.0" d="m224.83464 33.624672l89.00789 0l0 50.173225l-89.00789 0z" fill-rule="evenodd"/>
    <path fill="#000000" d="m238.08464 48.602173l0 17.0625l-2.265625 0l0 -17.0625l2.265625 0zm10.296875 0l-7.09375 7.953125l-3.984375 4.140625l-0.375 -2.421875l3.0 -3.296875l5.734375 -6.375l2.71875 0zm-2.1875 17.0625l-6.3125 -8.328125l1.34375 -1.78125l7.671875 10.109375l-2.703125 0zm9.316406 0.234375q-1.328125 0 -2.40625 -0.453125q-1.0625 -0.453125 -1.84375 -1.265625q-0.765625 -0.828125 -1.171875 -1.953125q-0.40625 -1.125 -0.40625 -2.453125l0 -0.5q0 -1.546875 0.453125 -2.75q0.453125 -1.21875 1.234375 -2.0625q0.796875 -0.84375 1.78125 -1.28125q1.0 -0.4375 2.078125 -0.4375q1.3593903 0 2.3437653 0.46875q0.984375 0.46875 1.609375 1.3125q0.640625 0.84375 0.9375 1.96875q0.3125 1.125 0.3125 2.46875l0 0.96875l-9.468765 0l0 -1.765625l7.3125153 0l0 -0.171875q-0.046875 -0.84375 -0.359375 -1.640625q-0.296875 -0.796875 -0.9375 -1.3125q-0.640625 -0.515625 -1.7500153 -0.515625q-0.75 0 -1.375 0.3125q-0.609375 0.3125 -1.0625 0.921875q-0.4375 0.609375 -0.6875 1.5q-0.25 0.875 -0.25 2.015625l0 0.5q0 0.890625 0.25 1.6875q0.265625 0.796875 0.75 1.390625q0.484375 0.59375 1.171875 0.9375q0.703125 0.34375 1.59375 0.34375q1.1562653 0 1.9531403 -0.46875q0.796875 -0.46875 1.390625 -1.265625l1.3125 1.046875q-0.40625 0.625 -1.046875 1.1875q-0.625 0.5625 -1.546875 0.921875q-0.921875 0.34375 -2.1718903 0.34375zm9.632828 -10.921875l0 10.6875l-2.171875 0l0 -12.6875l2.109375 0l0.0625 2.0zm3.953125 -2.0625l-0.015625 2.015625q-0.265625 -0.0625 -0.515625 -0.078125q-0.234375 -0.015625 -0.53125 -0.015625q-0.75 0 -1.328125 0.234375q-0.578125 0.234375 -0.984375 0.65625q-0.390625 0.421875 -0.625 1.0q-0.21875 0.578125 -0.28125 1.265625l-0.609375 0.359375q0 -1.15625 0.21875 -2.15625q0.234375 -1.015625 0.703125 -1.78125q0.484375 -0.78125 1.234375 -1.21875q0.75 -0.453125 1.78125 -0.453125q0.234375 0 0.53125 0.0625q0.3125 0.046875 0.421875 0.109375zm4.1796875 2.78125l0 9.96875l-2.171875 0l0 -12.6875l2.046875 0l0.125 2.71875zm-0.515625 3.140625l-0.90625 -0.03125q0.015625 -1.296875 0.390625 -2.40625q0.375 -1.109375 1.046875 -1.921875q0.6875 -0.828125 1.625 -1.28125q0.9375 -0.453125 2.09375 -0.453125q0.9375 0 1.6875 0.265625q0.75 0.25 1.28125 0.796875q0.53125 0.546875 0.8125 1.421875q0.28125 0.875 0.28125 2.125l0 8.3125l-2.171875 0l0 -8.328125q0 -1.0 -0.296875 -1.59375q-0.296875 -0.609375 -0.859375 -0.890625q-0.5625 -0.28125 -1.375 -0.28125q-0.8125 0 -1.484375 0.34375q-0.65625 0.34375 -1.140625 0.9375q-0.46875 0.59375 -0.734375 1.375q-0.25 0.765625 -0.25 1.609375zm16.863281 7.0625q-1.328125 0 -2.40625 -0.453125q-1.0625 -0.453125 -1.84375 -1.265625q-0.765625 -0.828125 -1.171875 -1.953125q-0.40625 -1.125 -0.40625 -2.453125l0 -0.5q0 -1.546875 0.453125 -2.75q0.453125 -1.21875 1.234375 -2.0625q0.796875 -0.84375 1.78125 -1.28125q1.0 -0.4375 2.078125 -0.4375q1.359375 0 2.34375 0.46875q0.984375 0.46875 1.609375 1.3125q0.640625 0.84375 0.9375 1.96875q0.3125 1.125 0.3125 2.46875l0 0.96875l-9.46875 0l0 -1.765625l7.3125 0l0 -0.171875q-0.046875 -0.84375 -0.359375 -1.640625q-0.296875 -0.796875 -0.9375 -1.3125q-0.640625 -0.515625 -1.75 -0.515625q-0.75 0 -1.375 0.3125q-0.609375 0.3125 -1.0625 0.921875q-0.4375 0.609375 -0.6875 1.5q-0.25 0.875 -0.25 2.015625l0 0.5q0 0.890625 0.25 1.6875q0.265625 0.796875 0.75 1.390625q0.484375 0.59375 1.171875 0.9375q0.703125 0.34375 1.59375 0.34375q1.15625 0 1.953125 -0.46875q0.796875 -0.46875 1.390625 -1.265625l1.3125 1.046875q-0.40625 0.625 -1.046875 1.1875q-0.625 0.5625 -1.546875 0.921875q-0.921875 0.34375 -2.171875 0.34375zm9.8203125 -18.234375l0 18.0l-2.1875 0l0 -18.0l2.1875 0z" fill-rule="nonzero"/>
    <path fill="#000000" fill-opacity="0.0" d="m219.48032 136.01837l211.40158 0l0 50.173233l-211.40158 0z" fill-rule="evenodd"/>
    <path fill="#000000" d="m240.23032 150.99588l2.25 0l0 11.546875q0 1.921875 -0.859375 3.203125q-0.859375 1.265625 -2.28125 1.90625q-1.40625 0.640625 -3.046875 0.640625q-1.734375 0 -3.140625 -0.640625q-1.40625 -0.640625 -2.21875 -1.90625q-0.8125 -1.28125 -0.8125 -3.203125l0 -11.546875l2.234375 0l0 11.546875q0 1.328125 0.484375 2.203125q0.5 0.859375 1.390625 1.28125q0.890625 0.421875 2.0625 0.421875q1.171875 0 2.0625 -0.421875q0.890625 -0.421875 1.375 -1.28125q0.5 -0.875 0.5 -2.203125l0 -11.546875zm12.84375 13.703125q0 -0.46875 -0.203125 -0.875q-0.203125 -0.40625 -0.828125 -0.734375q-0.625 -0.34375 -1.875 -0.59375q-1.0625 -0.21875 -1.921875 -0.515625q-0.84375 -0.3125 -1.4375 -0.734375q-0.578125 -0.4375 -0.90625 -1.015625q-0.3125 -0.59375 -0.3125 -1.390625q0 -0.75 0.328125 -1.40625q0.34375 -0.671875 0.953125 -1.1875q0.625 -0.515625 1.484375 -0.8125q0.875 -0.296875 1.9375 -0.296875q1.515625 0 2.59375 0.546875q1.078125 0.53125 1.65625 1.4375q0.578125 0.890625 0.578125 1.984375l-2.171875 0q0 -0.53125 -0.3125 -1.03125q-0.3125 -0.5 -0.90625 -0.828125q-0.578125 -0.328125 -1.4375 -0.328125q-0.90625 0 -1.46875 0.28125q-0.546875 0.28125 -0.796875 0.703125q-0.25 0.421875 -0.25 0.890625q0 0.34375 0.109375 0.625q0.125 0.265625 0.4375 0.5q0.328125 0.234375 0.890625 0.4375q0.578125 0.1875 1.46875 0.390625q1.5625 0.34375 2.5625 0.84375q1.015625 0.484375 1.5 1.203125q0.5 0.71875 0.5 1.734375q0 0.828125 -0.34375 1.53125q-0.34375 0.6875 -1.0 1.1875q-0.640625 0.5 -1.546875 0.78125q-0.890625 0.265625 -2.0 0.265625q-1.6875 0 -2.84375 -0.59375q-1.15625 -0.609375 -1.765625 -1.546875q-0.59375 -0.953125 -0.59375 -2.015625l2.1875 0q0.046875 0.890625 0.515625 1.421875q0.46875 0.515625 1.140625 0.734375q0.6875 0.21875 1.359375 0.21875q0.890625 0 1.484375 -0.234375q0.609375 -0.234375 0.921875 -0.640625q0.3125 -0.421875 0.3125 -0.9375zm10.277344 3.59375q-1.328125 0 -2.40625 -0.453125q-1.0625 -0.453125 -1.84375 -1.265625q-0.765625 -0.828125 -1.171875 -1.953125q-0.40625 -1.125 -0.40625 -2.453125l0 -0.5q0 -1.546875 0.453125 -2.75q0.453125 -1.21875 1.234375 -2.0625q0.796875 -0.84375 1.78125 -1.28125q1.0 -0.4375 2.078125 -0.4375q1.359375 0 2.34375 0.46875q0.984375 0.46875 1.609375 1.3125q0.640625 0.84375 0.9375 1.96875q0.3125 1.125 0.3125 2.46875l0 0.96875l-9.46875 0l0 -1.765625l7.3125 0l0 -0.171875q-0.046875 -0.84375 -0.359375 -1.640625q-0.296875 -0.796875 -0.9375 -1.3125q-0.640625 -0.515625 -1.75 -0.515625q-0.75 0 -1.375 0.3125q-0.609375 0.3125 -1.0625 0.921875q-0.4375 0.609375 -0.6875 1.5q-0.25 0.875 -0.25 2.015625l0 0.5q0 0.890625 0.25 1.6875q0.265625 0.796875 0.75 1.390625q0.484375 0.59375 1.171875 0.9375q0.703125 0.34375 1.59375 0.34375q1.15625 0 1.953125 -0.46875q0.796875 -0.46875 1.390625 -1.265625l1.3125 1.046875q-0.40625 0.625 -1.046875 1.1875q-0.625 0.5625 -1.546875 0.921875q-0.921875 0.34375 -2.171875 0.34375zm9.6328125 -10.921875l0 10.6875l-2.171875 0l0 -12.6875l2.109375 0l0.0625 2.0zm3.953125 -2.0625l-0.015625 2.015625q-0.265625 -0.0625 -0.515625 -0.078125q-0.234375 -0.015625 -0.53125 -0.015625q-0.75 0 -1.328125 0.234375q-0.578125 0.234375 -0.984375 0.65625q-0.390625 0.421875 -0.625 1.0q-0.21875 0.578125 -0.28125 1.265625l-0.609375 0.359375q0 -1.15625 0.21875 -2.15625q0.234375 -1.015625 0.703125 -1.78125q0.484375 -0.78125 1.234375 -1.21875q0.75 -0.453125 1.78125 -0.453125q0.234375 0 0.53125 0.0625q0.3125 0.046875 0.421875 0.109375zm9.3828125 9.390625q0 -0.46875 -0.203125 -0.875q-0.203125 -0.40625 -0.828125 -0.734375q-0.625 -0.34375 -1.875 -0.59375q-1.0625 -0.21875 -1.921875 -0.515625q-0.84375 -0.3125 -1.4375 -0.734375q-0.578125 -0.4375 -0.90625 -1.015625q-0.3125 -0.59375 -0.3125 -1.390625q0 -0.75 0.328125 -1.40625q0.34375 -0.671875 0.953125 -1.1875q0.625 -0.515625 1.484375 -0.8125q0.875 -0.296875 1.9375 -0.296875q1.515625 0 2.59375 0.546875q1.078125 0.53125 1.65625 1.4375q0.578125 0.890625 0.578125 1.984375l-2.171875 0q0 -0.53125 -0.3125 -1.03125q-0.3125 -0.5 -0.90625 -0.828125q-0.578125 -0.328125 -1.4375 -0.328125q-0.90625 0 -1.46875 0.28125q-0.546875 0.28125 -0.796875 0.703125q-0.25 0.421875 -0.25 0.890625q0 0.34375 0.109375 0.625q0.125 0.265625 0.4375 0.5q0.328125 0.234375 0.890625 0.4375q0.578125 0.1875 1.46875 0.390625q1.5625 0.34375 2.5625 0.84375q1.015625 0.484375 1.5 1.203125q0.5 0.71875 0.5 1.734375q0 0.828125 -0.34375 1.53125q-0.34375 0.6875 -1.0 1.1875q-0.640625 0.5 -1.546875 0.78125q-0.890625 0.265625 -2.0 0.265625q-1.6875 0 -2.84375 -0.59375q-1.15625 -0.609375 -1.765625 -1.546875q-0.59375 -0.953125 -0.59375 -2.015625l2.1875 0q0.046875 0.890625 0.515625 1.421875q0.46875 0.515625 1.140625 0.734375q0.6875 0.21875 1.359375 0.21875q0.890625 0 1.484375 -0.234375q0.609375 -0.234375 0.921875 -0.640625q0.3125 -0.421875 0.3125 -0.9375zm7.1835938 -6.890625l0 15.125l-2.1875 0l0 -17.5625l2.0 0l0.1875 2.4375zm8.53125 3.796875l0 0.25q0 1.390625 -0.328125 2.5625q-0.328125 1.171875 -0.953125 2.046875q-0.625 0.859375 -1.546875 1.34375q-0.90625 0.484375 -2.09375 0.484375q-1.203125 0 -2.125 -0.390625q-0.921875 -0.40625 -1.578125 -1.171875q-0.640625 -0.765625 -1.03125 -1.828125q-0.375 -1.0625 -0.515625 -2.40625l0 -1.3125q0.140625 -1.40625 0.53125 -2.515625q0.390625 -1.109375 1.03125 -1.890625q0.640625 -0.796875 1.546875 -1.21875q0.921875 -0.421875 2.109375 -0.421875q1.203125 0 2.125 0.46875q0.921875 0.46875 1.546875 1.328125q0.640625 0.84375 0.953125 2.03125q0.328125 1.1875 0.328125 2.640625zm-2.171875 0.25l0 -0.25q0 -0.9375 -0.203125 -1.78125q-0.203125 -0.84375 -0.625 -1.46875q-0.40625 -0.640625 -1.046875 -1.015625q-0.640625 -0.375 -1.53125 -0.375q-0.828125 0 -1.4375 0.28125q-0.59375 0.28125 -1.015625 0.765625q-0.421875 0.46875 -0.6875 1.078125q-0.265625 0.59375 -0.390625 1.25l0 3.03125q0.234375 0.8125 0.65625 1.546875q0.421875 0.71875 1.125 1.15625q0.703125 0.4375 1.765625 0.4375q0.875 0 1.515625 -0.359375q0.640625 -0.375 1.046875 -1.015625q0.421875 -0.65625 0.625 -1.484375q0.203125 -0.84375 0.203125 -1.796875zm12.4140625 4.03125l0 -6.53125q0 -0.75 -0.296875 -1.296875q-0.296875 -0.5625 -0.890625 -0.859375q-0.59375 -0.3125 -1.484375 -0.3125q-0.8125 0 -1.4375 0.28125q-0.609375 0.28125 -0.953125 0.75q-0.34375 0.453125 -0.34375 0.96875l-2.171875 0q0 -0.671875 0.34375 -1.34375q0.359375 -0.671875 1.015625 -1.203125q0.671875 -0.546875 1.59375 -0.875q0.9375 -0.328125 2.09375 -0.328125q1.375 0 2.4375 0.46875q1.0625 0.46875 1.65625 1.421875q0.609375 0.9375 0.609375 2.359375l0 5.90625q0 0.625 0.109375 1.34375q0.109375 0.71875 0.34375 1.234375l0 0.1875l-2.265625 0q-0.171875 -0.375 -0.265625 -1.0q-0.09375 -0.625 -0.09375 -1.171875zm0.375 -5.515625l0.03125 1.515625l-2.1875 0q-0.9375 0 -1.671875 0.15625q-0.71875 0.140625 -1.21875 0.4375q-0.484375 0.296875 -0.75 0.734375q-0.25 0.4375 -0.25 1.015625q0 0.609375 0.265625 1.109375q0.28125 0.484375 0.828125 0.765625q0.546875 0.28125 1.34375 0.28125q0.984375 0 1.75 -0.421875q0.765625 -0.421875 1.21875 -1.03125q0.453125 -0.609375 0.484375 -1.171875l0.921875 1.03125q-0.078125 0.5 -0.453125 1.09375q-0.359375 0.59375 -0.96875 1.140625q-0.59375 0.546875 -1.421875 0.90625q-0.828125 0.359375 -1.859375 0.359375q-1.28125 0 -2.25 -0.5q-0.96875 -0.515625 -1.5 -1.359375q-0.53125 -0.84375 -0.53125 -1.90625q0 -1.015625 0.390625 -1.796875q0.40625 -0.78125 1.15625 -1.296875q0.75 -0.53125 1.796875 -0.796875q1.0625 -0.265625 2.359375 -0.265625l2.515625 0zm10.2890625 6.140625q0.765625 0 1.421875 -0.3125q0.65625 -0.328125 1.078125 -0.875q0.421875 -0.5625 0.484375 -1.28125l2.0625 0q-0.0625 1.125 -0.765625 2.09375q-0.6875 0.96875 -1.8125 1.5625q-1.125 0.59375 -2.46875 0.59375q-1.4375 0 -2.5 -0.5q-1.0625 -0.515625 -1.765625 -1.390625q-0.6875 -0.875 -1.03125 -2.015625q-0.34375 -1.140625 -0.34375 -2.421875l0 -0.5q0 -1.265625 0.34375 -2.40625q0.34375 -1.15625 1.03125 -2.03125q0.703125 -0.875 1.765625 -1.375q1.0625 -0.515625 2.5 -0.515625q1.484375 0 2.59375 0.609375q1.109375 0.609375 1.75 1.640625q0.640625 1.03125 0.703125 2.34375l-2.0625 0q-0.0625 -0.78125 -0.453125 -1.40625q-0.375 -0.640625 -1.03125 -1.015625q-0.640625 -0.390625 -1.5 -0.390625q-1.0 0 -1.671875 0.40625q-0.671875 0.390625 -1.078125 1.046875q-0.390625 0.65625 -0.5625 1.46875q-0.15625 0.796875 -0.15625 1.625l0 0.5q0 0.828125 0.15625 1.640625q0.171875 0.8125 0.5625 1.46875q0.390625 0.65625 1.0625 1.046875q0.671875 0.390625 1.6875 0.390625zm12.75 1.78125q-1.328125 0 -2.40625 -0.453125q-1.0625 -0.453125 -1.84375 -1.265625q-0.765625 -0.828125 -1.171875 -1.953125q-0.40625 -1.125 -0.40625 -2.453125l0 -0.5q0 -1.546875 0.453125 -2.75q0.453125 -1.21875 1.234375 -2.0625q0.796875 -0.84375 1.78125 -1.28125q1.0 -0.4375 2.078125 -0.4375q1.359375 0 2.34375 0.46875q0.984375 0.46875 1.609375 1.3125q0.640625 0.84375 0.9375 1.96875q0.3125 1.125 0.3125 2.46875l0 0.96875l-9.46875 0l0 -1.765625l7.3125 0l0 -0.171875q-0.046875 -0.84375 -0.359375 -1.640625q-0.296875 -0.796875 -0.9375 -1.3125q-0.640625 -0.515625 -1.75 -0.515625q-0.75 0 -1.375 0.3125q-0.609375 0.3125 -1.0625 0.921875q-0.4375 0.609375 -0.6875 1.5q-0.25 0.875 -0.25 2.015625l0 0.5q0 0.890625 0.25 1.6875q0.265625 0.796875 0.75 1.390625q0.484375 0.59375 1.171875 0.9375q0.703125 0.34375 1.59375 0.34375q1.15625 0 1.953125 -0.46875q0.796875 -0.46875 1.390625 -1.265625l1.3125 1.046875q-0.40625 0.625 -1.046875 1.1875q-0.625 0.5625 -1.546875 0.921875q-0.921875 0.34375 -2.171875 0.34375zm15.0078125 -17.296875l-7.109375 18.53125l-1.875 0l7.125 -18.53125l1.859375 0zm15.292969 8.5625l0 6.25q-0.3125 0.46875 -1.015625 1.046875q-0.6875 0.578125 -1.90625 1.015625q-1.203125 0.421875 -3.109375 0.421875q-1.5625 0 -2.875 -0.546875q-1.296875 -0.546875 -2.265625 -1.59375q-0.953125 -1.046875 -1.46875 -2.546875q-0.515625 -1.515625 -0.515625 -3.421875l0 -1.328125q0 -1.90625 0.4375 -3.40625q0.453125 -1.5 1.328125 -2.546875q0.890625 -1.046875 2.15625 -1.59375q1.28125 -0.546875 2.9375 -0.546875q1.953125 0 3.265625 0.671875q1.328125 0.671875 2.0625 1.859375q0.75 1.1875 0.96875 2.6875l-2.265625 0q-0.15625 -0.921875 -0.609375 -1.671875q-0.4375 -0.765625 -1.28125 -1.234375q-0.828125 -0.46875 -2.140625 -0.46875q-1.1875 0 -2.0625 0.4375q-0.859375 0.4375 -1.421875 1.25q-0.5625 0.796875 -0.84375 1.953125q-0.265625 1.140625 -0.265625 2.59375l0 1.34375q0 1.46875 0.34375 2.640625q0.34375 1.15625 0.984375 1.96875q0.65625 0.8125 1.546875 1.234375q0.90625 0.421875 1.984375 0.421875q1.21875 0 1.96875 -0.203125q0.75 -0.203125 1.171875 -0.484375q0.421875 -0.296875 0.640625 -0.546875l0 -3.828125l-3.953125 0l0 -1.828125l6.203125 0zm11.160156 5.5625l0 -9.75l2.1875 0l0 12.6875l-2.078125 0l-0.109375 -2.9375zm0.421875 -2.671875l0.890625 -0.015625q0 1.265625 -0.265625 2.34375q-0.25 1.0625 -0.84375 1.859375q-0.578125 0.78125 -1.53125 1.21875q-0.953125 0.4375 -2.3125 0.4375q-0.921875 0 -1.6875 -0.265625q-0.765625 -0.28125 -1.328125 -0.84375q-0.546875 -0.5625 -0.84375 -1.453125q-0.296875 -0.90625 -0.296875 -2.171875l0 -8.1875l2.171875 0l0 8.203125q0 0.859375 0.1875 1.421875q0.1875 0.546875 0.515625 0.875q0.34375 0.328125 0.75 0.453125q0.421875 0.125 0.875 0.125q1.375 0 2.1875 -0.53125q0.8125 -0.53125 1.171875 -1.4375q0.359375 -0.90625 0.359375 -2.03125zm10.324219 5.84375q-1.328125 0 -2.40625 -0.453125q-1.0625 -0.453125 -1.84375 -1.265625q-0.765625 -0.828125 -1.171875 -1.953125q-0.40625 -1.125 -0.40625 -2.453125l0 -0.5q0 -1.546875 0.453125 -2.75q0.453125 -1.21875 1.234375 -2.0625q0.796875 -0.84375 1.78125 -1.28125q1.0 -0.4375 2.078125 -0.4375q1.359375 0 2.34375 0.46875q0.984375 0.46875 1.609375 1.3125q0.640625 0.84375 0.9375 1.96875q0.3125 1.125 0.3125 2.46875l0 0.96875l-9.46875 0l0 -1.765625l7.3125 0l0 -0.171875q-0.046875 -0.84375 -0.359375 -1.640625q-0.296875 -0.796875 -0.9375 -1.3125q-0.640625 -0.515625 -1.75 -0.515625q-0.75 0 -1.375 0.3125q-0.609375 0.3125 -1.0625 0.921875q-0.4375 0.609375 -0.6875 1.5q-0.25 0.875 -0.25 2.015625l0 0.5q0 0.890625 0.25 1.6875q0.265625 0.796875 0.75 1.390625q0.484375 0.59375 1.171875 0.9375q0.703125 0.34375 1.59375 0.34375q1.15625 0 1.953125 -0.46875q0.796875 -0.46875 1.390625 -1.265625l1.3125 1.046875q-0.40625 0.625 -1.046875 1.1875q-0.625 0.5625 -1.546875 0.921875q-0.921875 0.34375 -2.171875 0.34375zm14.8359375 -3.59375q0 -0.46875 -0.203125 -0.875q-0.203125 -0.40625 -0.828125 -0.734375q-0.625 -0.34375 -1.875 -0.59375q-1.0625 -0.21875 -1.921875 -0.515625q-0.84375 -0.3125 -1.4375 -0.734375q-0.578125 -0.4375 -0.90625 -1.015625q-0.3125 -0.59375 -0.3125 -1.390625q0 -0.75 0.328125 -1.40625q0.34375 -0.671875 0.953125 -1.1875q0.625 -0.515625 1.484375 -0.8125q0.875 -0.296875 1.9375 -0.296875q1.515625 0 2.59375 0.546875q1.078125 0.53125 1.65625 1.4375q0.578125 0.890625 0.578125 1.984375l-2.171875 0q0 -0.53125 -0.3125 -1.03125q-0.3125 -0.5 -0.90625 -0.828125q-0.578125 -0.328125 -1.4375 -0.328125q-0.90625 0 -1.46875 0.28125q-0.546875 0.28125 -0.796875 0.703125q-0.25 0.421875 -0.25 0.890625q0 0.34375 0.109375 0.625q0.125 0.265625 0.4375 0.5q0.328125 0.234375 0.890625 0.4375q0.578125 0.1875 1.46875 0.390625q1.5625 0.34375 2.5625 0.84375q1.015625 0.484375 1.5 1.203125q0.5 0.71875 0.5 1.734375q0 0.828125 -0.34375 1.53125q-0.34375 0.6875 -1.0 1.1875q-0.640625 0.5 -1.546875 0.78125q-0.890625 0.265625 -2.0 0.265625q-1.6875 0 -2.84375 -0.59375q-1.15625 -0.609375 -1.765625 -1.546875q-0.59375 -0.953125 -0.59375 -2.015625l2.1875 0q0.046875 0.890625 0.515625 1.421875q0.46875 0.515625 1.140625 0.734375q0.6875 0.21875 1.359375 0.21875q0.890625 0 1.484375 -0.234375q0.609375 -0.234375 0.921875 -0.640625q0.3125 -0.421875 0.3125 -0.9375zm10.324219 -9.328125l0 1.671875l-6.859375 0l0 -1.671875l6.859375 0zm-4.546875 -3.078125l2.171875 0l0 12.625q0 0.640625 0.203125 0.96875q0.203125 0.328125 0.515625 0.4375q0.3125 0.109375 0.671875 0.109375q0.28125 0 0.578125 -0.046875q0.296875 -0.0625 0.453125 -0.09375l0 1.765625q-0.25 0.078125 -0.671875 0.15625q-0.40625 0.078125 -1.0 0.078125q-0.796875 0 -1.46875 -0.3125q-0.65625 -0.328125 -1.0625 -1.0625q-0.390625 -0.75 -0.390625 -2.015625l0 -12.609375z" fill-rule="nonzero"/>
    <path fill="#000000" fill-opacity="0.0" d="m23.428858 124.28871l193.82677 0.06299591l0 77.57481l-193.82677 -0.06300354z" fill-rule="evenodd"/>
    <path fill="#000000" d="m33.64761 148.65204l0 -11.453125l1.5625 5.0354004E-4l6.015621 8.986328l0 -8.984375l1.453125 4.7302246E-4l0 11.453125l-1.5625 -5.0354004E-4l-6.015621 -9.001953l0 9.0l-1.453125 -4.7302246E-4zm10.867184 -4.152725q0 -2.296875 1.28125 -3.4058228q1.078125 -0.92152405 2.609375 -0.92103577q1.71875 5.645752E-4 2.796875 1.1259155q1.09375 1.109726 1.09375 3.094101q0 1.59375 -0.484375 2.5154724q-0.484375 0.92170715 -1.40625 1.4370422q-0.90625 0.49971008 -2.0 0.49934387q-1.734375 -5.645752E-4 -2.8125 -1.1102905q-1.078125 -1.125351 -1.078125 -3.234726zm1.453125 4.7302246E-4q0 1.59375 0.6875 2.390854q0.703125 0.7971039 1.75 0.7974396q1.046875 3.5095215E-4 1.734375 -0.7963104q0.703125 -0.7966461 0.703125 -2.437271q0 -1.53125 -0.703125 -2.328354q-0.6875 -0.7971039 -1.734375 -0.7974396q-1.046875 -3.3569336E-4 -1.75 0.7963104q-0.6875 0.7810211 -0.6875 2.374771zm12.421875 4.1602936l0 -8.296875l1.25 3.9672852E-4l0 1.15625q0.390625 -0.6092377 1.03125 -0.9684143q0.65625 -0.37478638 1.484375 -0.37451172q0.921875 3.0517578E-4 1.515625 0.39111328q0.59375 0.37519836 0.828125 1.0627747q0.984375 -1.4528046 2.5625 -1.4522858q1.234375 3.9672852E-4 1.890625 0.68811035q0.671875 0.6720886 0.671875 2.0939636l0 5.703125l-1.390625 -4.4250488E-4l0 -5.234375q0 -0.84375 -0.140625 -1.2031708q-0.140625 -0.37504578 -0.5 -0.59391785q-0.359375 -0.23449707 -0.84375 -0.23464966q-0.875 -2.89917E-4 -1.453125 0.577652q-0.578125 0.5779419 -0.578125 1.8591919l0 4.828125l-1.40625 -4.5776367E-4l0 -5.390625q0 -0.9375 -0.34375 -1.4063721q-0.34375 -0.4688568 -1.125 -0.4691162q-0.59375 -1.8310547E-4 -1.09375 0.31214905q-0.5 0.31233215 -0.734375 0.92163086q-0.21875 0.59368896 -0.21875 1.718689l0 4.3125l-1.40625 -4.5776367E-4zm13.328125 -9.8394165l0 -1.609375l1.40625 4.5776367E-4l0 1.609375l-1.40625 -4.5776367E-4zm0 9.84375l0 -8.296875l1.40625 4.5776367E-4l0 8.296875l-1.40625 -4.5776367E-4zm6.6171875 -1.2634735l0.203125 1.250061q-0.59375 0.124801636 -1.0625 0.12464905q-0.765625 -2.4414062E-4 -1.1875 -0.23475647q-0.421875 -0.25013733 -0.59375 -0.64082336q-0.171875 -0.40629578 -0.171875 -1.6719208l0 -4.765625l-1.03125 -3.3569336E-4l0 -1.09375l1.03125 3.3569336E-4l0 -2.0625l1.40625 -0.84329224l0 2.90625l1.40625 4.5776367E-4l0 1.09375l-1.40625 -4.5776367E-4l0 4.84375q0 0.609375 0.0625 0.78126526q0.078125 0.17190552 0.25 0.2813263q0.171875 0.093811035 0.484375 0.09391785q0.234375 7.6293945E-5 0.609375 -0.062301636zm1.3828125 -8.5776825l0 -1.609375l1.40625 4.5776367E-4l0 1.609375l-1.40625 -4.5776367E-4zm0 9.84375l0 -8.296875l1.40625 4.5776367E-4l0 8.296875l-1.40625 -4.5776367E-4zm3.2890625 0.6885681l1.375 0.2035675q0.078125 0.6406555 0.46875 0.9220276q0.53125 0.3908081 1.4375 0.39109802q0.96875 3.2043457E-4 1.5 -0.39013672q0.53125 -0.39045715 0.71875 -1.0935211q0.109375 -0.42182922 0.109375 -1.8124542q-0.921875 1.0934448 -2.296875 1.0930023q-1.71875 -5.645752E-4 -2.65625 -1.2352448q-0.9375 -1.2346802 -0.9375 -2.9690552q0 -1.1875 0.421875 -2.1873627q0.4375 -0.9998627 1.25 -1.546463q0.828125 -0.5466156 1.921875 -0.5462494q1.46875 4.7302246E-4 2.421875 1.1882782l0 -1.0l1.296875 4.272461E-4l0 7.171875q0 1.9375 -0.390625 2.749878q-0.390625 0.8123627 -1.25 1.280838q-0.859375 0.46847534 -2.109375 0.46806335q-1.484375 -4.8828125E-4 -2.40625 -0.6726532q-0.90625 -0.6721649 -0.875 -2.015915zm1.171875 -4.9839935q0 1.625 0.640625 2.3752136q0.65625 0.7502136 1.625 0.7505188q0.96875 3.2043457E-4 1.625 -0.73384094q0.65625 -0.7497864 0.65625 -2.3435364q0 -1.53125 -0.671875 -2.2970886q-0.671875 -0.7814789 -1.625 -0.78178406q-0.9375 -3.0517578E-4 -1.59375 0.7651062q-0.65625 0.7654114 -0.65625 2.2654114zm13.3984375 3.269989q-0.78125 0.6716156 -1.5 0.9526367q-0.71875 0.26538086 -1.546875 0.26512146q-1.375 -4.5776367E-4 -2.109375 -0.67256165q-0.734375 -0.67211914 -0.734375 -1.7033691q0 -0.609375 0.28125 -1.1092834q0.28125 -0.51553345 0.71875 -0.8122711q0.453125 -0.3123474 1.015625 -0.4684143q0.421875 -0.10923767 1.25 -0.20271301q1.703125 -0.20257568 2.515625 -0.48356628q0 -0.296875 0 -0.375q0 -0.859375 -0.390625 -1.2032471q-0.546875 -0.4845581 -1.609375 -0.4848938q-0.984375 -3.2043457E-4 -1.46875 0.35888672q-0.46875 0.3435974 -0.6875 1.2185364l-1.375 -0.18795776q0.1875 -0.87493896 0.609375 -1.4216766q0.4375 -0.5467224 1.25 -0.827713q0.8125 -0.2966156 1.875 -0.29626465q1.0625 3.5095215E-4 1.71875 0.25054932q0.671875 0.25022888 0.984375 0.62532043q0.3125 0.3751068 0.4375 0.9532776q0.078125 0.35939026 0.078125 1.2968903l0 1.875q0 1.96875 0.078125 2.4844055q0.09375 0.5156555 0.359375 1.0001221l-1.46875 -4.7302246E-4q-0.21875 -0.4375763 -0.28125 -1.0313416zm-0.109375 -3.1406708q-0.765625 0.31225586 -2.296875 0.5305023q-0.875 0.12472534 -1.234375 0.28085327q-0.359375 0.15612793 -0.5625 0.4685669q-0.1875 0.29681396 -0.1875 0.65618896q0 0.5625 0.421875 0.9376373q0.4375 0.37513733 1.25 0.375412q0.8125 2.593994E-4 1.4375 -0.34329224q0.640625 -0.35916138 0.9375 -0.9840698q0.234375 -0.4686737 0.234375 -1.4061737l0 -0.515625zm6.6640625 2.9084167l0.203125 1.250061q-0.59375 0.124816895 -1.0625 0.12466431q-0.765625 -2.4414062E-4 -1.1875 -0.23475647q-0.421875 -0.25013733 -0.59375 -0.64082336q-0.171875 -0.40631104 -0.171875 -1.671936l0 -4.765625l-1.03125 -3.3569336E-4l0 -1.09375l1.03125 3.3569336E-4l0 -2.0625l1.40625 -0.84329224l0 2.90625l1.40625 4.5776367E-4l0 1.09375l-1.40625 -4.5776367E-4l0 4.84375q0 0.609375 0.0625 0.78126526q0.078125 0.17190552 0.25 0.28134155q0.171875 0.09379578 0.484375 0.09390259q0.234375 7.6293945E-5 0.609375 -0.062301636zm1.3828125 -8.577667l0 -1.609375l1.40625 4.4250488E-4l0 1.609375l-1.40625 -4.4250488E-4zm0 9.84375l0 -8.296875l1.40625 4.4250488E-4l0 8.29689l-1.40625 -4.5776367E-4zm3.0234375 -4.1552734q0 -2.296875 1.28125 -3.405838q1.078125 -0.92152405 2.609375 -0.9210205q1.71875 5.493164E-4 2.796875 1.1259003q1.09375 1.1097412 1.09375 3.0941162q0 1.59375 -0.484375 2.5154572q-0.484375 0.9217224 -1.40625 1.4370422q-0.90625 0.49971008 -2.0 0.49935913q-1.734375 -5.645752E-4 -2.8125 -1.1102905q-1.078125 -1.125351 -1.078125 -3.234726zm1.453125 4.7302246E-4q0 1.59375 0.6875 2.390854q0.703125 0.7971039 1.75 0.7974396q1.046875 3.3569336E-4 1.734375 -0.7963104q0.703125 -0.7966461 0.703125 -2.437271q0 -1.53125 -0.703125 -2.328354q-0.6875 -0.7971039 -1.734375 -0.7974396q-1.046875 -3.3569336E-4 -1.75 0.7963104q-0.6875 0.7810211 -0.6875 2.374771zm7.9765625 4.158844l0 -8.296875l1.265625 4.119873E-4l0 1.171875q0.90625 -1.3590851 2.640625 -1.3585205q0.75 2.4414062E-4 1.375 0.2660675q0.625 0.26583862 0.9375 0.7034302q0.3125 0.4376068 0.4375 1.0470276q0.078125 0.39064026 0.078125 1.3593903l0 5.109375l-1.40625 -4.5776367E-4l0 -5.046875q0 -0.859375 -0.171875 -1.2812958q-0.15625 -0.43756104 -0.578125 -0.68769836q-0.40625 -0.25012207 -0.96875 -0.25030518q-0.90625 -3.0517578E-4 -1.5625 0.5776062q-0.640625 0.56230164 -0.640625 2.1560516l0 4.53125l-1.40625 -4.5776367E-4zm18.749992 -3.0407867l1.390625 0.18795776q-0.234375 1.4217987 -1.171875 2.2339935q-0.921875 0.8121948 -2.28125 0.8117523q-1.703125 -5.493164E-4 -2.75 -1.11026q-1.03125 -1.1253357 -1.03125 -3.2034607q0 -1.34375 0.4375 -2.3436127q0.453125 -1.0154724 1.359375 -1.5151825q0.921875 -0.49969482 1.984375 -0.49935913q1.359375 4.4250488E-4 2.21875 0.68821716q0.859375 0.6721649 1.09375 1.9378662l-1.359375 0.2026825q-0.203125 -0.8282013 -0.703125 -1.2502289q-0.484375 -0.4220276 -1.1875 -0.42225647q-1.0625 -3.5095215E-4 -1.734375 0.7650604q-0.65625 0.7497864 -0.65625 2.4060364q0 1.671875 0.640625 2.4376984q0.640625 0.7502136 1.671875 0.7505493q0.828125 2.746582E-4 1.375 -0.4995575q0.5625 -0.5154419 0.703125 -1.5778961zm2.0625 -1.1087036q0 -2.296875 1.28125 -3.405838q1.078125 -0.92152405 2.609375 -0.9210205q1.71875 5.645752E-4 2.796875 1.1259155q1.09375 1.109726 1.09375 3.094101q0 1.59375 -0.484375 2.5154572q-0.484375 0.9217224 -1.40625 1.4370575q-0.90625 0.49969482 -2.0 0.49934387q-1.734375 -5.645752E-4 -2.8125 -1.1102905q-1.078125 -1.125351 -1.078125 -3.234726zm1.453125 4.7302246E-4q0 1.59375 0.6875 2.390854q0.703125 0.7971039 1.75 0.7974396q1.046875 3.3569336E-4 1.734375 -0.7963104q0.703125 -0.7966461 0.703125 -2.437271q0 -1.53125 -0.703125 -2.328354q-0.6875 -0.7971039 -1.734375 -0.7974396q-1.046875 -3.3569336E-4 -1.75 0.7963104q-0.6875 0.7810211 -0.6875 2.374771zm7.4140625 1.6742859l1.390625 -0.21829224q0.109375 0.8437805 0.640625 1.2970734q0.546875 0.4376831 1.5 0.43798828q0.96875 3.2043457E-4 1.4375 -0.39015198q0.46875 -0.4060974 0.46875 -0.9373474q0 -0.46875 -0.40625 -0.7501373q-0.296875 -0.18759155 -1.4375 -0.46922302q-1.546875 -0.39111328 -2.15625 -0.67256165q-0.59375 -0.29707336 -0.90625 -0.7971802q-0.296875 -0.50009155 -0.296875 -1.1094666q0 -0.5625 0.25 -1.0311737q0.25 -0.46865845 0.6875 -0.7810211q0.328125 -0.24989319 0.890625 -0.40596008q0.578125 -0.1716919 1.21875 -0.17147827q0.984375 3.2043457E-4 1.71875 0.28179932q0.734375 0.28149414 1.078125 0.76597595q0.359375 0.46887207 0.5 1.2814178l-1.375 0.1870575q-0.09375 -0.6406555 -0.546875 -1.0001831q-0.453125 -0.3595276 -1.265625 -0.359787q-0.96875 -3.0517578E-4 -1.390625 0.3276825q-0.40625 0.31236267 -0.40625 0.7342377q0 0.28125 0.171875 0.50006104q0.171875 0.21879578 0.53125 0.37516785q0.21875 0.078201294 1.25 0.35977173q1.484375 0.39111328 2.078125 0.65693665q0.59375 0.2501831 0.921875 0.7346649q0.34375 0.48449707 0.34375 1.2032471q0 0.703125 -0.421875 1.3279877q-0.40625 0.6092377 -1.1875 0.9527283q-0.765625 0.34350586 -1.734375 0.34318542q-1.625 -5.187988E-4 -2.46875 -0.67266846q-0.84375 -0.67214966 -1.078125 -2.000351zm11.625 1.2225342l0.203125 1.250061q-0.59375 0.124801636 -1.0625 0.12464905q-0.765625 -2.4414062E-4 -1.1875 -0.23475647q-0.421875 -0.25013733 -0.59375 -0.64082336q-0.171875 -0.40629578 -0.171875 -1.6719208l0 -4.765625l-1.03125 -3.3569336E-4l0 -1.09375l1.03125 3.3569336E-4l0 -2.0625l1.40625 -0.84329224l0 2.90625l1.40625 4.5776367E-4l0 1.09375l-1.40625 -4.5776367E-4l0 4.84375q0 0.609375 0.0625 0.78126526q0.078125 0.17190552 0.25 0.2813263q0.171875 0.093811035 0.484375 0.09391785q0.234375 7.6293945E-5 0.609375 -0.062301636zm6.15625 1.2676239l0 -7.203125l-1.234375 -4.119873E-4l0 -1.09375l1.234375 4.119873E-4l0 -0.890625q0 -0.828125 0.15625 -1.2343292q0.203125 -0.54681396 0.703125 -0.8903961q0.515625 -0.34358215 1.4375 -0.34327698q0.59375 1.8310547E-4 1.3125 0.14105225l-0.203125 1.2342987q-0.4375 -0.07826233 -0.828125 -0.0783844q-0.640625 -2.1362305E-4 -0.90625 0.28094482q-0.265625 0.2655487 -0.265625 1.0155487l0 0.765625l1.609375 5.187988E-4l0 1.09375l-1.609375 -5.187988E-4l0 7.203125l-1.40625 -4.5776367E-4zm3.5859375 -4.1550903q0 -2.296875 1.28125 -3.405838q1.078125 -0.92152405 2.609375 -0.9210205q1.71875 5.493164E-4 2.796875 1.1259003q1.09375 1.1097412 1.09375 3.0941162q0 1.59375 -0.484375 2.5154572q-0.484375 0.9217224 -1.40625 1.4370575q-0.90625 0.49969482 -2.0 0.49934387q-1.734375 -5.645752E-4 -2.8125 -1.1102905q-1.078125 -1.125351 -1.078125 -3.234726zm1.453125 4.7302246E-4q0 1.59375 0.6875 2.390854q0.703125 0.7971039 1.75 0.7974396q1.046875 3.3569336E-4 1.734375 -0.7963104q0.703125 -0.7966461 0.703125 -2.437271q0 -1.53125 -0.703125 -2.328354q-0.6875 -0.7971039 -1.734375 -0.7974396q-1.046875 -3.3569336E-4 -1.75 0.7963104q-0.6875 0.7810211 -0.6875 2.374771zm7.9609375 4.158844l0 -8.296875l1.265625 3.9672852E-4l0 1.25q0.484375 -0.87483215 0.890625 -1.1559601q0.40625 -0.28111267 0.90625 -0.28094482q0.703125 2.2888184E-4 1.4375 0.45358276l-0.484375 1.2967224q-0.515625 -0.29704285 -1.03125 -0.2972107q-0.453125 -1.5258789E-4 -0.828125 0.28097534q-0.359375 0.2655182 -0.515625 0.76545715q-0.234375 0.7499237 -0.234375 1.6405487l0 4.3437653l-1.40625 -4.5776367E-4z" fill-rule="nonzero"/>
    <path fill="#000000" d="m33.49136 167.85199l0 -11.453125l1.40625 4.5776367E-4l0 6.53125l3.3281212 -3.3739166l1.828125 5.950928E-4l-3.1718712 3.0770874l3.4843712 5.219879l-1.734375 -5.645752E-4l-2.7343712 -4.250885l-1.0 0.95280457l0 3.296875l-1.40625 -4.5776367E-4zm13.671871 -2.6674347l1.453125 0.17234802q-0.34375 1.2811432 -1.28125 1.983963q-0.921875 0.7028198 -2.359375 0.7023468q-1.828125 -5.79834E-4 -2.890625 -1.1259308q-1.0625 -1.125351 -1.0625 -3.140976q0 -2.09375 1.078125 -3.249649q1.078125 -1.155899 2.796875 -1.1553345q1.65625 5.340576E-4 2.703125 1.1414948q1.0625 1.125351 1.0625 3.172226q0 0.125 0 0.375l-6.1875 -0.0020141602q0.078125 1.3750305 0.765625 2.1096344q0.703125 0.7189789 1.734375 0.7192993q0.78125 2.593994E-4 1.328125 -0.4058075q0.546875 -0.40608215 0.859375 -1.2966003zm-4.609375 -2.2827454l4.625 0.0014953613q-0.09375 -1.0469055 -0.53125 -1.5626678q-0.671875 -0.8127136 -1.734375 -0.8130646q-0.96875 -3.0517578E-4 -1.640625 0.65571594q-0.65625 0.6404114 -0.71875 1.7185211zm7.8203125 4.955658l0 -8.296875l1.265625 4.119873E-4l0 1.25q0.484375 -0.87483215 0.890625 -1.1559601q0.40625 -0.28111267 0.90625 -0.28094482q0.703125 2.2888184E-4 1.4375 0.45358276l-0.484375 1.2967224q-0.515625 -0.29704285 -1.03125 -0.2972107q-0.453125 -1.5258789E-4 -0.828125 0.28097534q-0.359375 0.2655182 -0.515625 0.76545715q-0.234375 0.7499237 -0.234375 1.6405487l0 4.34375l-1.40625 -4.5776367E-4zm5.34375 0.001739502l0 -8.296875l1.265625 4.119873E-4l0 1.171875q0.90625 -1.3590698 2.640625 -1.3585205q0.75 2.4414062E-4 1.375 0.26608276q0.625 0.26582336 0.9375 0.7034302q0.3125 0.43759155 0.4375 1.0470123q0.078125 0.39065552 0.078125 1.3594055l0 5.109375l-1.40625 -4.5776367E-4l0 -5.046875q0 -0.859375 -0.171875 -1.281311q-0.15625 -0.43754578 -0.578125 -0.6876831q-0.40625 -0.25013733 -0.96875 -0.25032043q-0.90625 -2.89917E-4 -1.5625 0.57762146q-0.640625 0.5622864 -0.640625 2.1560364l0 4.53125l-1.40625 -4.5776367E-4zm14.5703125 -2.6671295l1.453125 0.17234802q-0.34375 1.2811279 -1.28125 1.9839478q-0.921875 0.7028351 -2.359375 0.70236206q-1.828125 -5.950928E-4 -2.890625 -1.125946q-1.0625 -1.1253357 -1.0625 -3.1409607q0 -2.09375 1.078125 -3.249649q1.078125 -1.155899 2.796875 -1.1553497q1.65625 5.493164E-4 2.703125 1.14151q1.0625 1.125351 1.0625 3.172226q0 0.125 0 0.375l-6.1875 -0.0020141602q0.078125 1.3750153 0.765625 2.1096191q0.703125 0.7189789 1.734375 0.7193146q0.78125 2.593994E-4 1.328125 -0.40582275q0.546875 -0.4060669 0.859375 -1.2965851zm-4.609375 -2.2827606l4.625 0.0015106201q-0.09375 -1.0469055 -0.53125 -1.5626678q-0.671875 -0.8127289 -1.734375 -0.8130646q-0.96875 -3.2043457E-4 -1.640625 0.65571594q-0.65625 0.6404114 -0.71875 1.7185059zm7.8046875 4.955673l0 -11.453125l1.40625 4.5776367E-4l0 11.453125l-1.40625 -4.5776367E-4zm13.703125 -2.6674194l1.453125 0.17233276q-0.34375 1.2811432 -1.28125 1.983963q-0.921875 0.7028351 -2.359375 0.70236206q-1.828125 -5.950928E-4 -2.890625 -1.125946q-1.0625 -1.1253357 -1.0625 -3.1409607q0 -2.09375 1.078125 -3.249649q1.078125 -1.155899 2.796875 -1.1553497q1.65625 5.493164E-4 2.703125 1.14151q1.0625 1.1253357 1.0625 3.1722107q0 0.125 0 0.375l-6.1875 -0.0019989014q0.078125 1.3750153 0.765625 2.1096191q0.703125 0.7189789 1.734375 0.7193146q0.78125 2.593994E-4 1.328125 -0.40582275q0.546875 -0.4060669 0.859375 -1.2965851zm-4.609375 -2.2827606l4.625 0.0015106201q-0.09375 -1.0469055 -0.53125 -1.5626678q-0.671875 -0.8127289 -1.734375 -0.8130646q-0.96875 -3.2043457E-4 -1.640625 0.65571594q-0.65625 0.6404114 -0.71875 1.7185059zm7.8359375 4.955673l0 -8.296875l1.265625 4.119873E-4l0 1.171875q0.90625 -1.3590851 2.640625 -1.3585205q0.75 2.4414062E-4 1.375 0.26608276q0.625 0.26582336 0.9375 0.7034302q0.3125 0.43759155 0.4375 1.0470123q0.078125 0.39065552 0.078125 1.3594055l0 5.109375l-1.40625 -4.5776367E-4l0 -5.046875q0 -0.859375 -0.171875 -1.281311q-0.15625 -0.43754578 -0.578125 -0.6876831q-0.40625 -0.25013733 -0.96875 -0.25032043q-0.90625 -2.89917E-4 -1.5625 0.57762146q-0.640625 0.5622864 -0.640625 2.1560364l0 4.53125l-1.40625 -4.5776367E-4zm11.9609375 -1.261734l0.203125 1.250061q-0.59375 0.124816895 -1.0625 0.12466431q-0.765625 -2.593994E-4 -1.1875 -0.23477173q-0.421875 -0.25013733 -0.59375 -0.6408081q-0.171875 -0.40631104 -0.171875 -1.671936l0 -4.765625l-1.03125 -3.3569336E-4l0 -1.09375l1.03125 3.3569336E-4l0 -2.0625l1.40625 -0.84329224l0 2.90625l1.40625 4.5776367E-4l0 1.09375l-1.40625 -4.5776367E-4l0 4.84375q0 0.609375 0.0625 0.78126526q0.078125 0.17190552 0.25 0.28134155q0.171875 0.09379578 0.484375 0.09390259q0.234375 7.6293945E-5 0.609375 -0.062301636zm1.3671875 1.2660675l0 -8.296875l1.265625 4.119873E-4l0 1.25q0.484375 -0.8748474 0.890625 -1.1559601q0.40625 -0.28111267 0.90625 -0.28096008q0.703125 2.2888184E-4 1.4375 0.45359802l-0.484375 1.2967224q-0.515625 -0.29704285 -1.03125 -0.2972107q-0.453125 -1.5258789E-4 -0.828125 0.28097534q-0.359375 0.26550293 -0.515625 0.76545715q-0.234375 0.7499237 -0.234375 1.6405487l0 4.34375l-1.40625 -4.5776367E-4zm5.34375 -9.8420105l0 -1.609375l1.40625 4.5776367E-4l0 1.609375l-1.40625 -4.5776367E-4zm0 9.84375l0 -8.296875l1.40625 4.5776367E-4l0 8.296875l-1.40625 -4.5776367E-4zm9.2265625 -2.6688843l1.453125 0.17234802q-0.34375 1.2811432 -1.28125 1.983963q-0.921875 0.7028198 -2.359375 0.70236206q-1.828125 -5.950928E-4 -2.890625 -1.125946q-1.0625 -1.1253357 -1.0625 -3.1409607q0 -2.09375 1.078125 -3.249649q1.078125 -1.155899 2.796875 -1.1553497q1.65625 5.340576E-4 2.703125 1.14151q1.0625 1.1253357 1.0625 3.1722107q0 0.125 0 0.375l-6.1875 -0.0019989014q0.078125 1.3750153 0.765625 2.1096191q0.703125 0.7189789 1.734375 0.7193146q0.78125 2.4414062E-4 1.328125 -0.40582275q0.546875 -0.4060669 0.859375 -1.2966003zm-4.609375 -2.2827454l4.625 0.0015106201q-0.09375 -1.0469055 -0.53125 -1.5626831q-0.671875 -0.8127136 -1.734375 -0.8130493q-0.96875 -3.2043457E-4 -1.640625 0.65571594q-0.65625 0.6404114 -0.71875 1.7185059zm7.2734375 2.471115l1.390625 -0.21829224q0.109375 0.8437805 0.640625 1.2970734q0.546875 0.4376831 1.5 0.43798828q0.96875 3.2043457E-4 1.4375 -0.39015198q0.46875 -0.4060974 0.46875 -0.9373474q0 -0.46875 -0.40625 -0.7501373q-0.296875 -0.18759155 -1.4375 -0.46920776q-1.546875 -0.39112854 -2.15625 -0.6725769q-0.59375 -0.29707336 -0.90625 -0.7971802q-0.296875 -0.50009155 -0.296875 -1.1094666q0 -0.5625 0.25 -1.0311737q0.25 -0.46865845 0.6875 -0.7810211q0.328125 -0.24989319 0.890625 -0.40596008q0.578125 -0.1716919 1.21875 -0.17147827q0.984375 3.2043457E-4 1.71875 0.28181458q0.734375 0.28147888 1.078125 0.76597595q0.359375 0.4688568 0.5 1.2814026l-1.375 0.1870575q-0.09375 -0.6406555 -0.546875 -1.0001831q-0.453125 -0.35951233 -1.265625 -0.359787q-0.96875 -3.0517578E-4 -1.390625 0.3276825q-0.40625 0.31236267 -0.40625 0.7342377q0 0.28125 0.171875 0.50006104q0.171875 0.21879578 0.53125 0.37516785q0.21875 0.078201294 1.25 0.359787q1.484375 0.39109802 2.078125 0.6569214q0.59375 0.25019836 0.921875 0.7346802q0.34375 0.4844818 0.34375 1.2032318q0 0.703125 -0.421875 1.3279877q-0.40625 0.6092377 -1.1875 0.95274353q-0.765625 0.3434906 -1.734375 0.34318542q-1.625 -5.340576E-4 -2.46875 -0.6726837q-0.84375 -0.67214966 -1.078125 -2.000351zm16.070305 1.2239685l0.203125 1.2500763q-0.59375 0.124801636 -1.0625 0.12464905q-0.765625 -2.4414062E-4 -1.1875 -0.23475647q-0.421875 -0.25013733 -0.59375 -0.64082336q-0.171875 -0.40629578 -0.171875 -1.6719208l0 -4.765625l-1.03125 -3.3569336E-4l0 -1.09375l1.03125 3.3569336E-4l0 -2.0625l1.40625 -0.8433075l0 2.90625l1.40625 4.5776367E-4l0 1.09375l-1.40625 -4.5776367E-4l0 4.8437653q0 0.609375 0.0625 0.78126526q0.078125 0.17190552 0.25 0.2813263q0.171875 0.093811035 0.484375 0.09390259q0.234375 7.6293945E-5 0.609375 -0.062301636zm1.3828125 1.2660828l0 -11.453125l1.40625 4.5776367E-4l0 4.109375q0.984375 -1.1403046 2.484375 -1.1398163q0.921875 2.89917E-4 1.59375 0.3598938q0.6875 0.35958862 0.96875 1.0003052q0.296875 0.6407318 0.296875 1.8594818l0 5.265625l-1.40625 -4.5776367E-4l0 -5.265625q0 -1.046875 -0.453125 -1.5314026q-0.453125 -0.4845276 -1.296875 -0.48480225q-0.625 -1.9836426E-4 -1.171875 0.32774353q-0.546875 0.32795715 -0.78125 0.89038086q-0.234375 0.5467987 -0.234375 1.5155487l0 4.546875l-1.40625 -4.5776367E-4zm14.3046875 -1.0265961q-0.78125 0.6716156 -1.5 0.9526367q-0.71875 0.26538086 -1.546875 0.26512146q-1.375 -4.5776367E-4 -2.109375 -0.67256165q-0.734375 -0.67211914 -0.734375 -1.7033691q0 -0.609375 0.28125 -1.1092834q0.28125 -0.51553345 0.71875 -0.8122711q0.453125 -0.3123474 1.015625 -0.4684143q0.421875 -0.10923767 1.25 -0.20271301q1.703125 -0.20257568 2.515625 -0.48356628q0 -0.296875 0 -0.375q0 -0.859375 -0.390625 -1.2032471q-0.546875 -0.4845581 -1.609375 -0.4848938q-0.984375 -3.2043457E-4 -1.46875 0.35888672q-0.46875 0.3435974 -0.6875 1.2185364l-1.375 -0.18795776q0.1875 -0.87493896 0.609375 -1.4216766q0.4375 -0.5467224 1.25 -0.827713q0.8125 -0.2966156 1.875 -0.29626465q1.0625 3.5095215E-4 1.71875 0.25056458q0.671875 0.25021362 0.984375 0.62532043q0.3125 0.37509155 0.4375 0.9532623q0.078125 0.35940552 0.078125 1.2969055l0 1.875q0 1.96875 0.078125 2.4843903q0.09375 0.5156555 0.359375 1.0001221l-1.46875 -4.7302246E-4q-0.21875 -0.4375763 -0.28125 -1.0313416zm-0.109375 -3.1406708q-0.765625 0.31225586 -2.296875 0.5305023q-0.875 0.12472534 -1.234375 0.28085327q-0.359375 0.15612793 -0.5625 0.4685669q-0.1875 0.29681396 -0.1875 0.65618896q0 0.5625 0.421875 0.9376373q0.4375 0.37513733 1.25 0.375412q0.8125 2.593994E-4 1.4375 -0.34329224q0.640625 -0.35916138 0.9375 -0.9840698q0.234375 -0.4686737 0.234375 -1.4061737l0 -0.515625zm6.6640625 2.9084167l0.203125 1.2500763q-0.59375 0.124801636 -1.0625 0.12464905q-0.765625 -2.4414062E-4 -1.1875 -0.23475647q-0.421875 -0.25013733 -0.59375 -0.64082336q-0.171875 -0.40631104 -0.171875 -1.671936l0 -4.765625l-1.03125 -3.3569336E-4l0 -1.09375l1.03125 3.3569336E-4l0 -2.0625l1.40625 -0.84329224l0 2.90625l1.40625 4.5776367E-4l0 1.09375l-1.40625 -4.5776367E-4l0 4.84375q0 0.609375 0.0625 0.7812805q0.078125 0.17189026 0.25 0.2813263q0.171875 0.093811035 0.484375 0.09390259q0.234375 7.6293945E-5 0.609375 -0.062301636zm11.203125 1.2692719l0 -1.046875q-0.78125 1.2341156 -2.3125 1.2336273q-1.0 -3.3569336E-4 -1.828125 -0.5474701q-0.828125 -0.54714966 -1.296875 -1.5316772q-0.453125 -0.9845276 -0.453125 -2.2501526q0 -1.25 0.40625 -2.2498627q0.421875 -1.0154877 1.25 -1.546463q0.828125 -0.5466156 1.859375 -0.5462799q0.75 2.4414062E-4 1.328125 0.31292725q0.59375 0.31269836 0.953125 0.82844543l0 -4.109375l1.40625 4.5776367E-4l0 11.453125l-1.3125 -4.272461E-4zm-4.4375 -4.1420746q0 1.59375 0.671875 2.390854q0.671875 0.7814636 1.578125 0.78175354q0.921875 3.0517578E-4 1.5625 -0.74949646q0.65625 -0.7654114 0.65625 -2.3122864q0 -1.703125 -0.65625 -2.5002136q-0.65625 -0.7970886 -1.625 -0.7973938q-0.9375 -3.0517578E-4 -1.5625 0.76512146q-0.625 0.7654114 -0.625 2.4216614zm7.4296875 -0.013198853q0 -2.296875 1.28125 -3.405838q1.078125 -0.92152405 2.609375 -0.92103577q1.71875 5.645752E-4 2.796875 1.1259155q1.09375 1.109726 1.09375 3.094101q0 1.59375 -0.484375 2.5154724q-0.484375 0.9217224 -1.40625 1.4370422q-0.90625 0.49971008 -2.0 0.49934387q-1.734375 -5.645752E-4 -2.8125 -1.1102905q-1.078125 -1.1253357 -1.078125 -3.2347107zm1.453125 4.5776367E-4q0 1.59375 0.6875 2.390854q0.703125 0.7971039 1.75 0.7974396q1.046875 3.5095215E-4 1.734375 -0.7963104q0.703125 -0.7966461 0.703125 -2.437271q0 -1.53125 -0.703125 -2.328354q-0.6875 -0.7970886 -1.734375 -0.7974396q-1.046875 -3.3569336E-4 -1.75 0.7963104q-0.6875 0.7810211 -0.6875 2.374771zm7.9765625 4.158844l0 -8.296875l1.265625 4.119873E-4l0 1.171875q0.90625 -1.3590698 2.640625 -1.3585052q0.75 2.4414062E-4 1.375 0.2660675q0.625 0.26582336 0.9375 0.7034302q0.3125 0.43759155 0.4375 1.0470123q0.078125 0.39065552 0.078125 1.3594055l0 5.109375l-1.40625 -4.5776367E-4l0 -5.046875q0 -0.859375 -0.171875 -1.281311q-0.15625 -0.43754578 -0.578125 -0.6876831q-0.40625 -0.25013733 -0.96875 -0.25032043q-0.90625 -2.89917E-4 -1.5625 0.57762146q-0.640625 0.5622864 -0.640625 2.1560364l0 4.53125l-1.40625 -4.5776367E-4zm8.8046875 -9.934631l0 -1.640625l1.515625 4.8828125E-4l0 1.296875q0 1.046875 -0.25 1.4999237q-0.328125 0.6405182 -1.046875 0.9527893l-0.34375 -0.5469971q0.421875 -0.17173767 0.625 -0.5466614q0.21875 -0.37493896 0.234375 -1.0155487l-0.734375 -2.4414062E-4zm6.7109375 8.674057l0.203125 1.250061q-0.59375 0.124816895 -1.0625 0.12466431q-0.765625 -2.593994E-4 -1.1875 -0.23477173q-0.421875 -0.25013733 -0.59375 -0.6408081q-0.171875 -0.40631104 -0.171875 -1.671936l0 -4.765625l-1.03125 -3.3569336E-4l0 -1.09375l1.03125 3.3569336E-4l0 -2.0625l1.40625 -0.84329224l0 2.90625l1.40625 4.5776367E-4l0 1.09375l-1.40625 -4.5776367E-4l0 4.84375q0 0.609375 0.0625 0.78126526q0.078125 0.17190552 0.25 0.28134155q0.171875 0.09379578 0.484375 0.09390259q0.234375 7.6293945E-5 0.609375 -0.062301636z" fill-rule="nonzero"/>
    <path fill="#000000" d="m38.897606 186.02249q-0.78125 0.67163086 -1.5 0.9526367q-0.7187462 0.26539612 -1.5468712 0.26512146q-1.375 -4.4250488E-4 -2.109375 -0.6725464q-0.734375 -0.67211914 -0.734375 -1.7033691q0 -0.609375 0.28125 -1.1092834q0.28125 -0.51553345 0.71875 -0.8122711q0.453125 -0.3123474 1.015625 -0.4684143q0.421875 -0.10923767 1.25 -0.20272827q1.7031212 -0.20256042 2.5156212 -0.48355103q0 -0.296875 0 -0.375q0 -0.859375 -0.390625 -1.2032471q-0.546875 -0.4845581 -1.6093712 -0.48490906q-0.984375 -3.2043457E-4 -1.46875 0.35890198q-0.46875 0.3435974 -0.6875 1.2185211l-1.375 -0.1879425q0.1875 -0.87493896 0.609375 -1.4216766q0.4375 -0.5467377 1.25 -0.827713q0.8125 -0.2966156 1.875 -0.29626465q1.0624962 3.3569336E-4 1.7187462 0.25054932q0.671875 0.25022888 0.984375 0.62532043q0.3125 0.3751068 0.4375 0.9532776q0.078125 0.35939026 0.078125 1.2968903l0 1.875q0 1.96875 0.078125 2.4844055q0.09375 0.5156555 0.359375 1.0001221l-1.46875 -4.8828125E-4q-0.21875 -0.43756104 -0.28125 -1.0313416zm-0.109375 -3.1406555q-0.765625 0.31225586 -2.2968712 0.5305023q-0.875 0.12471008 -1.234375 0.28085327q-0.359375 0.15612793 -0.5625 0.4685669q-0.1875 0.29681396 -0.1875 0.65618896q0 0.5625 0.421875 0.9376373q0.4375 0.37513733 1.25 0.37539673q0.8125 2.746582E-4 1.4374962 -0.34327698q0.640625 -0.35916138 0.9375 -0.9840698q0.234375 -0.4686737 0.234375 -1.4061737l0 -0.515625zm9.0078125 1.1279297l1.390625 0.1879425q-0.234375 1.4217987 -1.171875 2.2340088q-0.921875 0.8121948 -2.28125 0.8117523q-1.703125 -5.493164E-4 -2.75 -1.1102753q-1.03125 -1.1253357 -1.03125 -3.2034607q0 -1.34375 0.4375 -2.3435974q0.453125 -1.0154877 1.359375 -1.5151825q0.921875 -0.49971008 1.984375 -0.49935913q1.359375 4.4250488E-4 2.21875 0.68821716q0.859375 0.67214966 1.09375 1.937851l-1.359375 0.20269775q-0.203125 -0.8282013 -0.703125 -1.2502289q-0.484375 -0.42204285 -1.1875 -0.42227173q-1.0625 -3.3569336E-4 -1.734375 0.7650604q-0.65625 0.7497864 -0.65625 2.4060364q0 1.671875 0.640625 2.4377136q0.640625 0.7502136 1.671875 0.7505493q0.828125 2.593994E-4 1.375 -0.4995575q0.5625 -0.5154419 0.703125 -1.5778961zm8.0 0.0025939941l1.390625 0.18795776q-0.234375 1.4217987 -1.171875 2.2339935q-0.921875 0.8121948 -2.28125 0.8117523q-1.703125 -5.493164E-4 -2.75 -1.11026q-1.03125 -1.1253357 -1.03125 -3.2034607q0 -1.34375 0.4375 -2.3436127q0.453125 -1.0154724 1.359375 -1.5151825q0.921875 -0.49969482 1.984375 -0.49935913q1.359375 4.4250488E-4 2.21875 0.6882324q0.859375 0.67214966 1.09375 1.937851l-1.359375 0.2026825q-0.203125 -0.82818604 -0.703125 -1.2502289q-0.484375 -0.4220276 -1.1875 -0.42225647q-1.0625 -3.5095215E-4 -1.734375 0.7650604q-0.65625 0.7497864 -0.65625 2.4060364q0 1.671875 0.640625 2.4376984q0.640625 0.7502136 1.671875 0.7505493q0.828125 2.746582E-4 1.375 -0.4995575q0.5625 -0.5154419 0.703125 -1.5778961zm8.265625 0.37768555l1.453125 0.17234802q-0.34375 1.2811432 -1.28125 1.983963q-0.921875 0.7028198 -2.359375 0.70236206q-1.828125 -5.950928E-4 -2.890625 -1.125946q-1.0625 -1.1253357 -1.0625 -3.1409607q0 -2.09375 1.078125 -3.2496643q1.078125 -1.155899 2.796875 -1.1553345q1.65625 5.340576E-4 2.703125 1.14151q1.0625 1.1253357 1.0625 3.1722107q0 0.125 0 0.375l-6.1875 -0.0020141602q0.078125 1.3750305 0.765625 2.1096344q0.703125 0.7189789 1.734375 0.7193146q0.78125 2.4414062E-4 1.328125 -0.40582275q0.546875 -0.4060669 0.859375 -1.2966003zm-4.609375 -2.2827454l4.625 0.0015106201q-0.09375 -1.0469055 -0.53125 -1.5626831q-0.671875 -0.8127136 -1.734375 -0.8130646q-0.96875 -3.0517578E-4 -1.640625 0.65571594q-0.65625 0.6404114 -0.71875 1.7185211zm7.2734375 2.471115l1.390625 -0.21829224q0.109375 0.8437805 0.640625 1.2970734q0.546875 0.4376831 1.5 0.43798828q0.96875 3.2043457E-4 1.4375 -0.39015198q0.46875 -0.4060974 0.46875 -0.9373474q0 -0.46875 -0.40625 -0.7501373q-0.296875 -0.18759155 -1.4375 -0.46920776q-1.546875 -0.39112854 -2.15625 -0.6725769q-0.59375 -0.29707336 -0.90625 -0.7971802q-0.296875 -0.50009155 -0.296875 -1.1094666q0 -0.5625 0.25 -1.0311737q0.25 -0.46865845 0.6875 -0.7810211q0.328125 -0.24989319 0.890625 -0.40596008q0.578125 -0.1716919 1.21875 -0.17147827q0.984375 3.2043457E-4 1.71875 0.28181458q0.734375 0.28147888 1.078125 0.7659607q0.359375 0.46887207 0.5 1.2814178l-1.375 0.1870575q-0.09375 -0.6406555 -0.546875 -1.0001831q-0.453125 -0.35951233 -1.265625 -0.359787q-0.96875 -3.0517578E-4 -1.390625 0.3276825q-0.40625 0.31236267 -0.40625 0.7342377q0 0.28125 0.171875 0.50006104q0.171875 0.21879578 0.53125 0.37516785q0.21875 0.078201294 1.25 0.359787q1.484375 0.39109802 2.078125 0.6569214q0.59375 0.2501831 0.921875 0.7346649q0.34375 0.48449707 0.34375 1.2032471q0 0.703125 -0.421875 1.3279877q-0.40625 0.6092377 -1.1875 0.95274353q-0.765625 0.3434906 -1.734375 0.34318542q-1.625 -5.340576E-4 -2.46875 -0.6726837q-0.84375 -0.67214966 -1.078125 -2.000351zm8.0 0.0025939941l1.390625 -0.21829224q0.109375 0.8437805 0.640625 1.2970886q0.546875 0.43766785 1.5 0.43798828q0.96875 3.0517578E-4 1.4375 -0.39016724q0.46875 -0.4060974 0.46875 -0.9373474q0 -0.46875 -0.40625 -0.7501221q-0.296875 -0.18760681 -1.4375 -0.46922302q-1.546875 -0.39112854 -2.15625 -0.6725769q-0.59375 -0.29707336 -0.90625 -0.7971649q-0.296875 -0.5001068 -0.296875 -1.1094818q0 -0.5625 0.25 -1.0311584q0.25 -0.4686737 0.6875 -0.7810364q0.328125 -0.24989319 0.890625 -0.40596008q0.578125 -0.17167664 1.21875 -0.17147827q0.984375 3.2043457E-4 1.71875 0.28181458q0.734375 0.28149414 1.078125 0.76597595q0.359375 0.46887207 0.5 1.2814178l-1.375 0.18704224q-0.09375 -0.6406555 -0.546875 -1.0001678q-0.453125 -0.3595276 -1.265625 -0.359787q-0.96875 -3.2043457E-4 -1.390625 0.32766724q-0.40625 0.31236267 -0.40625 0.7342377q0 0.28125 0.171875 0.50006104q0.171875 0.21881104 0.53125 0.37516785q0.21875 0.078201294 1.25 0.359787q1.484375 0.39111328 2.078125 0.6569214q0.59375 0.25019836 0.921875 0.7346802q0.34375 0.4844818 0.34375 1.2032318q0 0.703125 -0.421875 1.3279877q-0.40625 0.6092529 -1.1875 0.95274353q-0.765625 0.34350586 -1.734375 0.34318542q-1.625 -5.340576E-4 -2.46875 -0.6726837q-0.84375 -0.67214966 -1.078125 -2.000351zm12.4453125 0.004058838l1.390625 -0.2183075q0.109375 0.8437805 0.640625 1.2970886q0.546875 0.43766785 1.5 0.43798828q0.96875 3.0517578E-4 1.4375 -0.39016724q0.46875 -0.4060974 0.46875 -0.9373474q0 -0.46875 -0.40625 -0.7501221q-0.296875 -0.18760681 -1.4375 -0.46922302q-1.546875 -0.39112854 -2.15625 -0.6725769q-0.59375 -0.29707336 -0.90625 -0.7971649q-0.296875 -0.5001068 -0.296875 -1.1094818q0 -0.5625 0.25 -1.0311584q0.25 -0.4686737 0.6875 -0.7810364q0.328125 -0.24989319 0.890625 -0.40596008q0.578125 -0.17167664 1.21875 -0.17147827q0.984375 3.2043457E-4 1.71875 0.28181458q0.734375 0.28149414 1.078125 0.76597595q0.359375 0.46887207 0.5 1.2814178l-1.375 0.18704224q-0.09375 -0.6406555 -0.546875 -1.0001678q-0.453125 -0.3595276 -1.265625 -0.359787q-0.96875 -3.2043457E-4 -1.390625 0.32766724q-0.40625 0.31236267 -0.40625 0.7342377q0 0.28125 0.171875 0.50006104q0.171875 0.21881104 0.53125 0.37516785q0.21875 0.078201294 1.25 0.359787q1.484375 0.39111328 2.078125 0.6569214q0.59375 0.25019836 0.921875 0.7346802q0.34375 0.4844818 0.34375 1.2032318q0 0.703125 -0.421875 1.3279877q-0.40625 0.6092529 -1.1875 0.95274353q-0.765625 0.34350586 -1.734375 0.34318542q-1.625 -5.340576E-4 -2.46875 -0.6726837q-0.84375 -0.6721344 -1.078125 -2.0003357zm14.234375 -0.18287659l1.453125 0.17234802q-0.34375 1.2811279 -1.28125 1.9839478q-0.921875 0.7028351 -2.359375 0.70236206q-1.828125 -5.950928E-4 -2.890625 -1.1259308q-1.0625 -1.125351 -1.0625 -3.140976q0 -2.09375 1.078125 -3.249649q1.078125 -1.155899 2.796875 -1.1553497q1.65625 5.493164E-4 2.703125 1.14151q1.0625 1.125351 1.0625 3.172226q0 0.125 0 0.375l-6.1875 -0.0020141602q0.078125 1.3750305 0.765625 2.1096191q0.703125 0.7189789 1.734375 0.7193146q0.78125 2.593994E-4 1.328125 -0.40582275q0.546875 -0.4060669 0.859375 -1.2965851zm-4.609375 -2.2827606l4.625 0.0015106201q-0.09375 -1.0469055 -0.53125 -1.5626678q-0.671875 -0.8127289 -1.734375 -0.8130646q-0.96875 -3.2043457E-4 -1.640625 0.65571594q-0.65625 0.6404114 -0.71875 1.7185059zm13.2421875 1.9105682l1.390625 0.1879425q-0.234375 1.4217987 -1.171875 2.2339935q-0.921875 0.8122101 -2.28125 0.8117676q-1.703125 -5.645752E-4 -2.75 -1.1102753q-1.03125 -1.1253357 -1.03125 -3.2034607q0 -1.34375 0.4375 -2.3436127q0.453125 -1.0154724 1.359375 -1.5151825q0.921875 -0.49969482 1.984375 -0.49934387q1.359375 4.4250488E-4 2.21875 0.68821716q0.859375 0.67214966 1.09375 1.937851l-1.359375 0.2026825q-0.203125 -0.82818604 -0.703125 -1.2502289q-0.484375 -0.4220276 -1.1875 -0.42225647q-1.0625 -3.5095215E-4 -1.734375 0.7650604q-0.65625 0.7497864 -0.65625 2.4060364q0 1.671875 0.640625 2.4377136q0.640625 0.75019836 1.671875 0.75053406q0.828125 2.746582E-4 1.375 -0.49954224q0.5625 -0.5154419 0.703125 -1.5778961zm2.578125 3.047699l0 -8.296875l1.265625 4.119873E-4l0 1.25q0.484375 -0.87483215 0.890625 -1.1559601q0.40625 -0.28111267 0.90625 -0.28094482q0.703125 2.2888184E-4 1.4375 0.45358276l-0.484375 1.2967224q-0.515625 -0.29704285 -1.03125 -0.2972107q-0.453125 -1.5258789E-4 -0.828125 0.28097534q-0.359375 0.2655182 -0.515625 0.76545715q-0.234375 0.7499237 -0.234375 1.6405487l0 4.34375l-1.40625 -4.5776367E-4zm11.015625 -2.6682892l1.453125 0.17234802q-0.34375 1.2811432 -1.28125 1.983963q-0.921875 0.7028198 -2.359375 0.7023468q-1.828125 -5.79834E-4 -2.890625 -1.1259308q-1.0625 -1.125351 -1.0625 -3.140976q0 -2.09375 1.078125 -3.249649q1.078125 -1.155899 2.796875 -1.1553345q1.65625 5.340576E-4 2.703125 1.1414948q1.0625 1.125351 1.0625 3.172226q0 0.125 0 0.375l-6.1875 -0.0020141602q0.078125 1.3750305 0.765625 2.1096344q0.703125 0.7189789 1.734375 0.7192993q0.78125 2.593994E-4 1.328125 -0.4058075q0.546875 -0.40608215 0.859375 -1.2966003zm-4.609375 -2.2827454l4.625 0.0014953613q-0.09375 -1.0469055 -0.53125 -1.5626678q-0.671875 -0.8127136 -1.734375 -0.8130646q-0.96875 -3.0517578E-4 -1.640625 0.65571594q-0.65625 0.6404114 -0.71875 1.7185211zm10.89843 3.69104l0.203125 1.250061q-0.59375 0.124816895 -1.0625 0.12466431q-0.765625 -2.593994E-4 -1.1874924 -0.23477173q-0.421875 -0.25013733 -0.59375 -0.6408081q-0.171875 -0.40631104 -0.171875 -1.671936l0 -4.765625l-1.03125 -3.3569336E-4l0 -1.09375l1.03125 3.3569336E-4l0 -2.0625l1.4062424 -0.84329224l0 2.90625l1.40625 4.5776367E-4l0 1.09375l-1.40625 -4.5776367E-4l0 4.84375q0 0.609375 0.0625 0.78126526q0.078125 0.17190552 0.25 0.28134155q0.171875 0.09379578 0.484375 0.09390259q0.234375 7.6293945E-5 0.609375 -0.062301636zm0.8203125 -1.2184906l1.390625 -0.21829224q0.109375 0.8437805 0.640625 1.2970886q0.546875 0.43766785 1.5 0.43798828q0.96875 3.0517578E-4 1.4375 -0.39016724q0.46875 -0.4060974 0.46875 -0.9373474q0 -0.46875 -0.40625 -0.7501221q-0.296875 -0.18760681 -1.4375 -0.46922302q-1.546875 -0.39112854 -2.15625 -0.6725769q-0.59375 -0.29707336 -0.90625 -0.7971649q-0.296875 -0.5001068 -0.296875 -1.1094818q0 -0.5625 0.25 -1.0311584q0.25 -0.4686737 0.6875 -0.7810364q0.328125 -0.24989319 0.890625 -0.40596008q0.578125 -0.17167664 1.21875 -0.17147827q0.984375 3.2043457E-4 1.71875 0.28181458q0.734375 0.28149414 1.078125 0.76597595q0.359375 0.46887207 0.5 1.2814178l-1.375 0.18704224q-0.09375 -0.6406555 -0.546875 -1.0001678q-0.453125 -0.3595276 -1.265625 -0.359787q-0.96875 -3.2043457E-4 -1.390625 0.32766724q-0.40625 0.31236267 -0.40625 0.7342377q0 0.28125 0.171875 0.50006104q0.171875 0.21881104 0.53125 0.37516785q0.21875 0.078201294 1.25 0.359787q1.484375 0.39111328 2.078125 0.6569214q0.59375 0.25019836 0.921875 0.7346802q0.34375 0.4844818 0.34375 1.2032318q0 0.703125 -0.421875 1.3279877q-0.40625 0.6092529 -1.1875 0.95274353q-0.765625 0.34350586 -1.734375 0.34318542q-1.625 -5.340576E-4 -2.46875 -0.6726837q-0.84375 -0.67214966 -1.078125 -2.000351z" fill-rule="nonzero"/>
    <path fill="#000000" fill-opacity="0.0" d="m117.09656 111.00079l97.60631 0" fill-rule="evenodd"/>
    <path stroke="#000000" stroke-width="2.0" stroke-linejoin="round" stroke-linecap="butt" d="m117.09656 111.00079l97.60631 0" fill-rule="evenodd"/>
    <path fill="#000000" fill-opacity="0.0" d="m7.7112575 110.65842l20.377953 0" fill-rule="evenodd"/>
    <path stroke="#000000" stroke-width="2.0" stroke-linejoin="round" stroke-linecap="butt" d="m7.7112575 110.65842l20.377953 0" fill-rule="evenodd"/>
  </g>
</svg>
