<?xml version="1.0"?>
<svg xmlns="http://www.w3.org/2000/svg" viewBox="0 0 590 218">
  <style>
    .text { font: 14px sans-serif; fill: #000; }
  </style>

  <defs>
    <marker id="arrowhead" markerWidth="10" markerHeight="7"
            refX="8" refY="3.5" orient="auto" fill="#666666">
      <polygon points="0 0, 10 3.5, 0 7" />
    </marker>
  </defs>

  <rect x="37.5" y="98.5" width="154" height="37" rx="9" fill="#f4cccc" stroke="#999999" stroke-width="1" />
  <text x="114.5" y="117.5" class="text" fill="#000000"
        text-anchor="middle" dominant-baseline="middle">Unrestricted</text>

  <rect x="395.5" y="98.5" width="154" height="37" rx="9" fill="#d9ead3" stroke="#999999" stroke-width="1" />
  <text x="472.5" y="117.5" class="text" fill="#000000"
        text-anchor="middle" dominant-baseline="middle">Restricted</text>

  <path d="M195.5,117.5 C250,80,350,80,395.5,117.5" fill="none" stroke="#666666"
        stroke-width="2" marker-end="url(#arrowhead)" />

  <path d="M395.5,117.5 C350,160,250,160,195.5,117.5" fill="none" stroke="#666666"
        stroke-width="2" marker-end="url(#arrowhead)" />

  <path d="M300.5,37.5 L315.5,37.5 L305.5,57.5 L320.5,57.5 L300.5,82.5 L308.5,62.5 L295.5,62.5 L300.5,37.5 Z"
        fill="#ffd966" stroke="#000000" stroke-width="1" />
  <text x="308.5" y="32.5" class="text" fill="#000000"
        text-anchor="middle">Data Flush</text>

  <path d="M300.5,137.5 L315.5,137.5 L305.5,157.5 L320.5,157.5 L300.5,182.5 L308.5,162.5 L295.5,162.5 L300.5,137.5 Z"
        fill="#ffd966" stroke="#000000" stroke-width="1" />
  <text x="308.5" y="132.5" class="text" fill="#000000"
        text-anchor="middle">Control Flush</text>

  <circle cx="240.5" cy="137.5" r="18" fill="none" stroke="#cfe2f3" stroke-width="10" />
  <path d="M230.5 147.5 L250.5 125.5" fill="none" stroke="#cfe2f3" stroke-width="10" />

  <text x="220.5" y="180.5" class="text" fill="#000000"
        text-anchor="middle">Stun HT sibling</text>

</svg>
