<?xml version="1.0"?>
<svg xmlns:xlink="http://www.w3.org/1999/xlink" xmlns="http://www.w3.org/2000/svg" version="1.1" viewBox="0.0 0.0 590.2729658792651 218.14435695538057" fill="none" stroke="none" stroke-linecap="square" stroke-miterlimit="10">
  <clipPath id="p.0">
    <path d="m0 0l590.27295 0l0 218.14436l-590.27295 0l0 -218.14436z" clip-rule="nonzero"/>
  </clipPath>
  <g clip-path="url(#p.0)">
    <path fill="#000000" fill-opacity="0.0" d="m0 0l590.27295 0l0 218.14436l-590.27295 0z" fill-rule="evenodd"/>
    <path fill="#d9ead3" d="m394.73752 97.67735l0 0c0 -5.148964 4.1740723 -9.323021 9.323029 -9.323021l153.85791 0c2.4725952 0 4.843933 0.9822464 6.592346 2.7306519c1.7484131 1.7484055 2.7306519 4.119751 2.7306519 6.592369l0 37.29097c0 5.1489563 -4.1740723 9.323013 -9.322998 9.323013l-153.85791 0c-5.1489563 0 -9.323029 -4.174057 -9.323029 -9.323013z" fill-rule="evenodd"/>
    <path stroke="#999999" stroke-width="1.0" stroke-linejoin="round" stroke-linecap="butt" d="m394.73752 97.67735l0 0c0 -5.148964 4.1740723 -9.323021 9.323029 -9.323021l153.85791 0c2.4725952 0 4.843933 0.9822464 6.592346 2.7306519c1.7484131 1.7484055 2.7306519 4.119751 2.7306519 6.592369l0 37.29097c0 5.1489563 -4.1740723 9.323013 -9.322998 9.323013l-153.85791 0c-5.1489563 0 -9.323029 -4.174057 -9.323029 -9.323013z" fill-rule="evenodd"/>
    <path fill="#000000" d="m448.3924 121.40283l0 -10.5l3.546875 0q0.875 0 1.609375 0.40625q0.75 0.390625 1.1875 1.09375q0.453125 0.6875 0.453125 1.609375q0 0.5625 -0.203125 1.109375q-0.203125 0.546875 -0.640625 1.0q-0.421875 0.453125 -1.09375 0.734375q-0.671875 0.265625 -1.59375 0.265625l-2.609375 0l0 -1.15625l2.8125 0q0.546875 0 1.015625 -0.25q0.46875 -0.25 0.765625 -0.6875q0.296875 -0.4375 0.296875 -1.015625q0 -0.46875 -0.25 -0.90625q-0.234375 -0.4375 -0.6875 -0.71875q-0.4375 -0.296875 -1.046875 -0.296875l-2.3125 0l0 9.3125l-1.25 0zm2.53125 -4.8125l1.375 -0.0625l3.3125 4.8125l0 0.0625l-1.46875 0l-3.21875 -4.8125zm9.208771 5.046875q-1.078125 0 -1.921875 -0.515625q-0.84375 -0.515625 -1.328125 -1.40625q-0.46875 -0.890625 -0.46875 -2.03125q0 -1.078125 0.4375 -1.984375q0.453125 -0.90625 1.265625 -1.453125q0.8125 -0.546875 1.921875 -0.546875q1.109375 0 1.90625 0.484375q0.796875 0.484375 1.21875 1.359375q0.4375 0.859375 0.4375 1.96875q0 0.109375 -0.015625 0.21875q0 0.09375 0 0.171875l-6.4375 0l0 -1.03125l5.140625 0q-0.015625 -0.3125 -0.140625 -0.671875q-0.125 -0.359375 -0.40625 -0.671875q-0.265625 -0.3125 -0.6875 -0.5q-0.40625 -0.203125 -1.015625 -0.203125q-0.734375 0 -1.28125 0.375q-0.53125 0.375 -0.8125 1.015625q-0.28125 0.640625 -0.28125 1.46875q0 0.953125 0.359375 1.578125q0.359375 0.625 0.9375 0.9375q0.59375 0.3125 1.21875 0.3125q0.8125 0 1.34375 -0.390625q0.546875 -0.390625 0.875 -0.96875l1.046875 0.515625q-0.4375 0.859375 -1.265625 1.421875q-0.8125 0.546875 -2.046875 0.546875zm7.503418 0q-0.828125 0 -1.46875 -0.265625q-0.640625 -0.28125 -1.0625 -0.734375q-0.40625 -0.46875 -0.625 -1.0l1.125 -0.5q0.28125 0.671875 0.84375 1.046875q0.5625 0.359375 1.28125 0.359375q0.6875 0 1.140625 -0.28125q0.46875 -0.28125 0.46875 -0.828125q0 -0.328125 -0.1875 -0.546875q-0.1875 -0.234375 -0.5625 -0.390625q-0.359375 -0.171875 -0.890625 -0.296875l-0.90625 -0.234375q-0.53125 -0.15625 -1.0 -0.421875q-0.46875 -0.265625 -0.765625 -0.671875q-0.28125 -0.421875 -0.28125 -1.03125q0 -0.671875 0.390625 -1.15625q0.40625 -0.484375 1.046875 -0.734375q0.65625 -0.25 1.375 -0.25q0.65625 0 1.21875 0.1875q0.5625 0.171875 0.984375 0.53125q0.421875 0.359375 0.640625 0.890625l-1.078125 0.5q-0.28125 -0.5625 -0.75 -0.78125q-0.46875 -0.21875 -1.03125 -0.21875q-0.625 0 -1.078125 0.28125q-0.453125 0.265625 -0.453125 0.734375q0 0.46875 0.375 0.703125q0.375 0.234375 0.921875 0.375l1.078125 0.28125q1.09375 0.28125 1.65625 0.828125q0.5625 0.546875 0.5625 1.34375q0 0.703125 -0.40625 1.21875q-0.390625 0.5 -1.0625 0.78125q-0.671875 0.28125 -1.5 0.28125zm3.7468872 -6.578125l0 -1.125l1.40625 0l0 1.125l-1.40625 0zm3.40625 6.46875q-0.9375 0 -1.515625 -0.5625q-0.5625 -0.578125 -0.5625 -1.53125l0 -7.609375l1.25 0l0 7.3125q0 0.625 0.25 0.921875q0.25 0.296875 0.765625 0.296875q0.234375 0 0.4375 -0.0625q0.21875 -0.0625 0.40625 -0.1875l0 1.21875q-0.234375 0.09375 -0.484375 0.140625q-0.25 0.0625 -0.546875 0.0625zm-0.90625 -6.46875l0 -1.125l1.90625 0l0 1.125l-1.90625 0zm3.381775 6.34375l0 -7.46875l1.1875 0l0 1.203125l0.0625 0q0.140625 -0.4375 0.484375 -0.75q0.34375 -0.3125 0.796875 -0.484375q0.453125 -0.1875 0.890625 -0.1875q0.328125 0 0.515625 0.03125q0.203125 0.03125 0.359375 0.109375l0 1.34375q-0.234375 -0.109375 -0.515625 -0.171875q-0.265625 -0.0625 -0.546875 -0.0625q-0.53125 0 -0.984375 0.3125q-0.453125 0.3125 -0.734375 0.828125q-0.265625 0.5 -0.265625 1.125l0 4.171875l-1.25 0zm5.422821 0l0 -7.46875l1.25 0l0 7.46875l-1.25 0zm0.625 -8.859375q-0.375 0 -0.640625 -0.25q-0.265625 -0.265625 -0.265625 -0.640625q0 -0.375 0.265625 -0.625q0.265625 -0.265625 0.640625 -0.265625q0.375 0 0.625 0.265625q0.265625 0.25 0.265625 0.625q0 0.375 -0.265625 0.640625q-0.25 0.25 -0.625 0.25zm5.8287964 9.09375q-1.109375 0 -1.96875 -0.515625q-0.84375 -0.53125 -1.328125 -1.421875q-0.484375 -0.90625 -0.484375 -2.03125q0 -1.140625 0.484375 -2.03125q0.484375 -0.90625 1.328125 -1.421875q0.859375 -0.515625 1.96875 -0.515625q1.265625 0 2.078125 0.578125q0.8125 0.578125 1.140625 1.484375l-1.125 0.46875q-0.28125 -0.6875 -0.828125 -1.046875q-0.546875 -0.359375 -1.328125 -0.359375q-0.65625 0 -1.21875 0.359375q-0.5625 0.34375 -0.921875 0.984375q-0.34375 0.625 -0.34375 1.5q0 0.84375 0.34375 1.5q0.359375 0.640625 0.921875 1.0q0.5625 0.34375 1.21875 0.34375q0.796875 0 1.359375 -0.359375q0.578125 -0.375 0.859375 -1.046875l1.109375 0.46875q-0.359375 0.859375 -1.1875 1.46875q-0.8125 0.59375 -2.078125 0.59375zm3.9768982 -6.578125l0 -1.125l1.40625 0l0 1.125l-1.40625 0zm3.40625 6.46875q-0.9375 0 -1.515625 -0.5625q-0.5625 -0.578125 -0.5625 -1.53125l0 -7.609375l1.25 0l0 7.3125q0 0.625 0.25 0.921875q0.25 0.296875 0.765625 0.296875q0.234375 0 0.4375 -0.0625q0.21875 -0.0625 0.40625 -0.1875l0 1.21875q-0.234375 0.09375 -0.484375 0.140625q-0.25 0.0625 -0.546875 0.0625zm-0.90625 -6.46875l0 -1.125l1.90625 0l0 1.125l-1.90625 0zm6.343231 6.578125q-1.078125 0 -1.921875 -0.515625q-0.84375 -0.515625 -1.328125 -1.40625q-0.46875 -0.890625 -0.46875 -2.03125q0 -1.078125 0.4375 -1.984375q0.453125 -0.90625 1.265625 -1.453125q0.8125 -0.546875 1.921875 -0.546875q1.109375 0 1.90625 0.484375q0.796875 0.484375 1.21875 1.359375q0.4375 0.859375 0.4375 1.96875q0 0.109375 -0.015625 0.21875q0 0.09375 0 0.171875l-6.4375 0l0 -1.03125l5.140625 0q-0.015625 -0.3125 -0.140625 -0.671875q-0.125 -0.359375 -0.40625 -0.671875q-0.265625 -0.3125 -0.6875 -0.5q-0.40625 -0.203125 -1.015625 -0.203125q-0.734375 0 -1.28125 0.375q-0.53125 0.375 -0.8125 1.015625q-0.28125 0.640625 -0.28125 1.46875q0 0.953125 0.359375 1.578125q0.359375 0.625 0.9375 0.9375q0.59375 0.3125 1.21875 0.3125q0.8125 0 1.34375 -0.390625q0.546875 -0.390625 0.875 -0.96875l1.046875 0.515625q-0.4375 0.859375 -1.265625 1.421875q-0.8125 0.546875 -2.046875 0.546875zm8.0815735 0q-1.015625 0 -1.828125 -0.515625q-0.8125 -0.515625 -1.28125 -1.40625q-0.46875 -0.890625 -0.46875 -2.046875q0 -1.15625 0.46875 -2.046875q0.46875 -0.90625 1.28125 -1.40625q0.8125 -0.515625 1.828125 -0.515625q0.59375 0 1.09375 0.1875q0.5 0.1875 0.8749695 0.5q0.375 0.296875 0.578125 0.65625l0.0625 0l-0.0625 -1.046875l0 -3.09375l1.25 0l0 10.5l-1.1875 0l0 -1.09375l-0.0625 0q-0.203125 0.328125 -0.578125 0.640625q-0.37496948 0.3125 -0.8749695 0.5q-0.5 0.1875 -1.09375 0.1875zm0.125 -1.125q0.640625 0 1.203125 -0.34375q0.578125 -0.34375 0.9218445 -0.984375q0.359375 -0.640625 0.359375 -1.515625q0 -0.875 -0.359375 -1.515625q-0.34371948 -0.640625 -0.9218445 -0.984375q-0.5625 -0.34375 -1.203125 -0.34375q-0.640625 0 -1.203125 0.34375q-0.5625 0.34375 -0.921875 0.984375q-0.34375 0.640625 -0.34375 1.515625q0 0.859375 0.34375 1.515625q0.359375 0.640625 0.921875 0.984375q0.5625 0.34375 1.203125 0.34375z" fill-rule="nonzero"/>
    <path fill="#f4cccc" d="m36.946194 97.67735l0 0c0 -5.148964 4.174061 -9.323021 9.323021 -9.323021l153.8579 0c2.4726257 0 4.8439636 0.9822464 6.5923767 2.7306519c1.7483978 1.7484055 2.7306519 4.119751 2.7306519 6.592369l0 37.29097c0 5.1489563 -4.174057 9.323013 -9.323029 9.323013l-153.8579 0c-5.14896 0 -9.323021 -4.174057 -9.323021 -9.323013z" fill-rule="evenodd"/>
    <path stroke="#999999" stroke-width="1.0" stroke-linejoin="round" stroke-linecap="butt" d="m36.946194 97.67735l0 0c0 -5.148964 4.174061 -9.323021 9.323021 -9.323021l153.8579 0c2.4726257 0 4.8439636 0.9822464 6.5923767 2.7306519c1.7483978 1.7484055 2.7306519 4.119751 2.7306519 6.592369l0 37.29097c0 5.1489563 -4.174057 9.323013 -9.323029 9.323013l-153.8579 0c-5.14896 0 -9.323021 -4.174057 -9.323021 -9.323013z" fill-rule="evenodd"/>
    <path fill="#000000" d="m87.10169 121.63721q-1.140625 0 -2.0 -0.515625q-0.859375 -0.53125 -1.359375 -1.453125q-0.484375 -0.9375 -0.484375 -2.15625l0 -6.609375l1.234375 0l0 6.671875q0 0.828125 0.296875 1.484375q0.296875 0.640625 0.875 1.015625q0.578125 0.375 1.4375 0.375q0.875 0 1.453125 -0.375q0.59375 -0.375 0.875 -1.015625q0.296875 -0.65625 0.296875 -1.484375l0 -6.671875l1.25 0l0 6.609375q0 1.21875 -0.46875 2.15625q-0.453125 0.921875 -1.328125 1.453125q-0.859375 0.515625 -2.078125 0.515625zm5.807007 -0.234375l0 -7.46875l1.1875 0l0 1.09375l0.0625 0q0.296875 -0.546875 0.953125 -0.9375q0.671875 -0.390625 1.46875 -0.390625q1.375 0 2.0625 0.796875q0.703125 0.796875 0.703125 2.109375l0 4.796875l-1.25 0l0 -4.609375q0 -1.078125 -0.515625 -1.515625q-0.515625 -0.453125 -1.34375 -0.453125q-0.609375 0 -1.078125 0.34375q-0.46875 0.34375 -0.734375 0.890625q-0.265625 0.53125 -0.265625 1.140625l0 4.203125l-1.25 0zm8.192871 0l0 -7.46875l1.1875 0l0 1.203125l0.0625 0q0.140625 -0.4375 0.484375 -0.75q0.34375 -0.3125 0.796875 -0.484375q0.453125 -0.1875 0.890625 -0.1875q0.328125 0 0.515625 0.03125q0.203125 0.03125 0.359375 0.109375l0 1.34375q-0.234375 -0.109375 -0.515625 -0.171875q-0.265625 -0.0625 -0.546875 -0.0625q-0.53125 0 -0.984375 0.3125q-0.453125 0.3125 -0.734375 0.828125q-0.265625 0.5 -0.265625 1.125l0 4.171875l-1.25 0zm8.457626 0.234375q-1.078125 0 -1.921875 -0.515625q-0.84375 -0.515625 -1.328125 -1.40625q-0.46875 -0.890625 -0.46875 -2.03125q0 -1.078125 0.4375 -1.984375q0.453125 -0.90625 1.265625 -1.453125q0.8125 -0.546875 1.921875 -0.546875q1.109375 0 1.90625 0.484375q0.796875 0.484375 1.21875 1.359375q0.4375 0.859375 0.4375 1.96875q0 0.109375 -0.015625 0.21875q0 0.09375 0 0.171875l-6.4375 0l0 -1.03125l5.140625 0q-0.015625 -0.3125 -0.140625 -0.671875q-0.125 -0.359375 -0.40625 -0.671875q-0.265625 -0.3125 -0.6875 -0.5q-0.40625 -0.203125 -1.015625 -0.203125q-0.734375 0 -1.28125 0.375q-0.53125 0.375 -0.8125 1.015625q-0.28125 0.640625 -0.28125 1.46875q0 0.953125 0.359375 1.578125q0.359375 0.625 0.9375 0.9375q0.59375 0.3125 1.21875 0.3125q0.8125 0 1.34375 -0.390625q0.546875 -0.390625 0.875 -0.96875l1.046875 0.515625q-0.4375 0.859375 -1.265625 1.421875q-0.8125 0.546875 -2.046875 0.546875zm7.503433 0q-0.828125 0 -1.46875 -0.265625q-0.640625 -0.28125 -1.0625 -0.734375q-0.40625 -0.46875 -0.625 -1.0l1.125 -0.5q0.28125 0.671875 0.84375 1.046875q0.5625 0.359375 1.28125 0.359375q0.6875 0 1.140625 -0.28125q0.46875 -0.28125 0.46875 -0.828125q0 -0.328125 -0.1875 -0.546875q-0.1875 -0.234375 -0.5625 -0.390625q-0.359375 -0.171875 -0.890625 -0.296875l-0.90625 -0.234375q-0.53125 -0.15625 -1.0 -0.421875q-0.46875 -0.265625 -0.765625 -0.671875q-0.28125 -0.421875 -0.28125 -1.03125q0 -0.671875 0.390625 -1.15625q0.40625 -0.484375 1.046875 -0.734375q0.65625 -0.25 1.375 -0.25q0.65625 0 1.21875 0.1875q0.5625 0.171875 0.984375 0.53125q0.421875 0.359375 0.640625 0.890625l-1.078125 0.5q-0.28125 -0.5625 -0.75 -0.78125q-0.46875 -0.21875 -1.03125 -0.21875q-0.625 0 -1.078125 0.28125q-0.453125 0.265625 -0.453125 0.734375q0 0.46875 0.375 0.703125q0.375 0.234375 0.921875 0.375l1.078125 0.28125q1.09375 0.28125 1.65625 0.828125q0.5625 0.546875 0.5625 1.34375q0 0.703125 -0.40625 1.21875q-0.390625 0.5 -1.0625 0.78125q-0.671875 0.28125 -1.5 0.28125zm3.746872 -6.578125l0 -1.125l1.40625 0l0 1.125l-1.40625 0zm3.40625 6.46875q-0.9375 0 -1.515625 -0.5625q-0.5625 -0.578125 -0.5625 -1.53125l0 -7.609375l1.25 0l0 7.3125q0 0.625 0.25 0.921875q0.25 0.296875 0.765625 0.296875q0.234375 0 0.4375 -0.0625q0.21875 -0.0625 0.40625 -0.1875l0 1.21875q-0.234375 0.09375 -0.484375 0.140625q-0.25 0.0625 -0.546875 0.0625zm-0.90625 -6.46875l0 -1.125l1.90625 0l0 1.125l-1.90625 0zm3.381775 6.34375l0 -7.46875l1.1875 0l0 1.203125l0.0625 0q0.14063263 -0.4375 0.48438263 -0.75q0.34375 -0.3125 0.796875 -0.484375q0.453125 -0.1875 0.890625 -0.1875q0.328125 0 0.515625 0.03125q0.203125 0.03125 0.359375 0.109375l0 1.34375q-0.234375 -0.109375 -0.515625 -0.171875q-0.265625 -0.0625 -0.546875 -0.0625q-0.53125 0 -0.984375 0.3125q-0.453125 0.3125 -0.734375 0.828125q-0.26563263 0.5 -0.26563263 1.125l0 4.171875l-1.25 0zm5.422844 0l0 -7.46875l1.25 0l0 7.46875l-1.25 0zm0.625 -8.859375q-0.375 0 -0.640625 -0.25q-0.265625 -0.265625 -0.265625 -0.640625q0 -0.375 0.265625 -0.625q0.265625 -0.265625 0.640625 -0.265625q0.375 0 0.625 0.265625q0.265625 0.25 0.265625 0.625q0 0.375 -0.265625 0.640625q-0.25 0.25 -0.625 0.25zm5.8287964 9.09375q-1.109375 0 -1.96875 -0.515625q-0.84375 -0.53125 -1.328125 -1.421875q-0.484375 -0.90625 -0.484375 -2.03125q0 -1.140625 0.484375 -2.03125q0.484375 -0.90625 1.328125 -1.421875q0.859375 -0.515625 1.96875 -0.515625q1.265625 0 2.078125 0.578125q0.8125 0.578125 1.140625 1.484375l-1.125 0.46875q-0.28125 -0.6875 -0.828125 -1.046875q-0.546875 -0.359375 -1.328125 -0.359375q-0.65625 0 -1.21875 0.359375q-0.5625 0.34375 -0.921875 0.984375q-0.34375 0.625 -0.34375 1.5q0 0.84375 0.34375 1.5q0.359375 0.640625 0.921875 1.0q0.5625 0.34375 1.21875 0.34375q0.796875 0 1.359375 -0.359375q0.578125 -0.375 0.859375 -1.046875l1.109375 0.46875q-0.359375 0.859375 -1.1875 1.46875q-0.8125 0.59375 -2.078125 0.59375zm3.9768982 -6.578125l0 -1.125l1.40625 0l0 1.125l-1.40625 0zm3.40625 6.46875q-0.9375 0 -1.515625 -0.5625q-0.5625 -0.578125 -0.5625 -1.53125l0 -7.609375l1.25 0l0 7.3125q0 0.625 0.25 0.921875q0.25 0.296875 0.765625 0.296875q0.234375 0 0.4375 -0.0625q0.21875 -0.0625 0.40625 -0.1875l0 1.21875q-0.234375 0.09375 -0.484375 0.140625q-0.25 0.0625 -0.546875 0.0625zm-0.90625 -6.46875l0 -1.125l1.90625 0l0 1.125l-1.90625 0zm6.343231 6.578125q-1.078125 0 -1.921875 -0.515625q-0.84375 -0.515625 -1.328125 -1.40625q-0.46875 -0.890625 -0.46875 -2.03125q0 -1.078125 0.4375 -1.984375q0.453125 -0.90625 1.265625 -1.453125q0.8125 -0.546875 1.921875 -0.546875q1.109375 0 1.90625 0.484375q0.796875 0.484375 1.21875 1.359375q0.4375 0.859375 0.4375 1.96875q0 0.109375 -0.015625 0.21875q0 0.09375 0 0.171875l-6.4375 0l0 -1.03125l5.140625 0q-0.015625 -0.3125 -0.140625 -0.671875q-0.125 -0.359375 -0.40625 -0.671875q-0.265625 -0.3125 -0.6875 -0.5q-0.40625 -0.203125 -1.015625 -0.203125q-0.734375 0 -1.28125 0.375q-0.53125 0.375 -0.8125 1.015625q-0.28125 0.640625 -0.28125 1.46875q0 0.953125 0.359375 1.578125q0.359375 0.625 0.9375 0.9375q0.59375 0.3125 1.21875 0.3125q0.8125 0 1.34375 -0.390625q0.546875 -0.390625 0.875 -0.96875l1.046875 0.515625q-0.4375 0.859375 -1.265625 1.421875q-0.8125 0.546875 -2.046875 0.546875zm8.081558 0q-1.015625 0 -1.828125 -0.515625q-0.8125 -0.515625 -1.28125 -1.40625q-0.46875 -0.890625 -0.46875 -2.046875q0 -1.15625 0.46875 -2.046875q0.46875 -0.90625 1.28125 -1.40625q0.8125 -0.515625 1.828125 -0.515625q0.59375 0 1.09375 0.1875q0.5 0.1875 0.875 0.5q0.375 0.296875 0.578125 0.65625l0.0625 0l-0.0625 -1.046875l0 -3.09375l1.25 0l0 10.5l-1.1875 0l0 -1.09375l-0.0625 0q-0.203125 0.328125 -0.578125 0.640625q-0.375 0.3125 -0.875 0.5q-0.5 0.1875 -1.09375 0.1875zm0.125 -1.125q0.640625 0 1.203125 -0.34375q0.578125 -0.34375 0.921875 -0.984375q0.359375 -0.640625 0.359375 -1.515625q0 -0.875 -0.359375 -1.515625q-0.34375 -0.640625 -0.921875 -0.984375q-0.5625 -0.34375 -1.203125 -0.34375q-0.640625 0 -1.203125 0.34375q-0.5625 0.34375 -0.921875 0.984375q-0.34375 0.640625 -0.34375 1.515625q0 0.859375 0.34375 1.515625q0.359375 0.640625 0.921875 0.984375q0.5625 0.34375 1.203125 0.34375z" fill-rule="nonzero"/>
    <path fill="#000000" fill-opacity="0.0" d="m135.14699 42.459316l94.04724 0l0 33.92126l-94.04724 0z" fill-rule="evenodd"/>
    <path fill="#000000" d="m147.38136 62.979317l-3.046875 -8.59375l1.125 0l2.125 6.234375l0.28125 0.84375l0.046875 0l0.296875 -0.84375l2.21875 -6.234375l1.140625 0l-3.15625 8.59375l-1.03125 0zm5.314804 0l0 -8.59375l1.46875 0l2.734375 7.046875l0.046875 0l2.734375 -7.046875l1.484375 0l0 8.59375l-1.015625 0l0 -5.453125l0.046875 -1.640625l-0.046875 0l-2.796875 7.09375l-0.84375 0l-2.8125 -7.09375l-0.046875 0l0.046875 1.640625l0 5.453125l-1.0 0zm15.667725 0.1875q-0.890625 0 -1.578125 -0.40625q-0.6875 -0.421875 -1.078125 -1.15625q-0.390625 -0.734375 -0.390625 -1.671875q0 -0.875 0.359375 -1.609375q0.375 -0.75 1.03125 -1.203125q0.671875 -0.453125 1.578125 -0.453125q0.90625 0 1.5625 0.40625q0.65625 0.390625 1.0 1.109375q0.359375 0.703125 0.359375 1.609375q0 0.09375 -0.015625 0.1875q0 0.078125 -0.015625 0.125l-5.265625 0l0 -0.828125l4.21875 0q-0.015625 -0.25 -0.125 -0.546875q-0.09375 -0.296875 -0.3125 -0.546875q-0.21875 -0.265625 -0.5625 -0.421875q-0.34375 -0.171875 -0.84375 -0.171875q-0.609375 0 -1.046875 0.3125q-0.4375 0.296875 -0.671875 0.828125q-0.234375 0.53125 -0.234375 1.203125q0 0.78125 0.296875 1.296875q0.3125 0.515625 0.78125 0.765625q0.46875 0.25 0.984375 0.25q0.671875 0 1.109375 -0.3125q0.4375 -0.328125 0.703125 -0.796875l0.875 0.421875q-0.375 0.703125 -1.046875 1.15625q-0.671875 0.453125 -1.671875 0.453125zm4.0132904 -0.1875l0 -6.125l0.96875 0l0 0.90625l0.046875 0q0.234375 -0.4375 0.78125 -0.765625q0.546875 -0.328125 1.203125 -0.328125q1.125 0 1.6875 0.65625q0.578125 0.65625 0.578125 1.734375l0 3.921875l-1.03125 0l0 -3.765625q0 -0.890625 -0.421875 -1.25q-0.421875 -0.375 -1.09375 -0.375q-0.5 0 -0.890625 0.28125q-0.375 0.28125 -0.59375 0.734375q-0.21875 0.4375 -0.21875 0.9375l0 3.4375l-1.015625 0zm6.074936 -5.203125l0 -0.921875l1.140625 0l0 0.921875l-1.140625 0zm2.796875 5.296875q-0.78125 0 -1.25 -0.453125q-0.453125 -0.46875 -0.453125 -1.25l0 -6.234375l1.015625 0l0 5.984375q0 0.515625 0.203125 0.765625q0.21875 0.234375 0.640625 0.234375q0.1875 0 0.34375 -0.046875q0.171875 -0.046875 0.328125 -0.15625l0 1.0q-0.1875 0.078125 -0.390625 0.109375q-0.203125 0.046875 -0.4375 0.046875zm-0.75 -5.296875l0 -0.921875l1.5625 0l0 0.921875l-1.5625 0zm2.7742767 5.203125l0 -6.125l0.96875 0l0 0.984375l0.046875 0q0.125 -0.34375 0.40625 -0.59375q0.28125 -0.265625 0.640625 -0.40625q0.375 -0.15625 0.734375 -0.15625q0.265625 0 0.421875 0.03125q0.15625 0.03125 0.296875 0.078125l0 1.109375q-0.203125 -0.09375 -0.421875 -0.140625q-0.21875 -0.046875 -0.453125 -0.046875q-0.4375 0 -0.8125 0.25q-0.375 0.25 -0.59375 0.671875q-0.21875 0.421875 -0.21875 0.921875l0 3.421875l-1.015625 0zm6.2762756 2.28125q-0.03125 0.078125 -0.078125 0.171875q-0.046875 0.109375 -0.0625 0.140625l-1.046875 0q0.0625 -0.15625 0.140625 -0.34375q0.09375 -0.1875 0.21875 -0.453125q0.0625 -0.15625 0.125 -0.296875q0.0625 -0.125 0.140625 -0.28125q0.078125 -0.15625 0.1875 -0.40625l0.84375 -1.828125l0.21875 -0.5625l1.84375 -4.546875l1.109375 0l-3.171875 7.3125q-0.046875 0.109375 -0.15625 0.34375q-0.09375 0.234375 -0.1875 0.453125q-0.078125 0.21875 -0.125 0.296875zm0.234375 -2.53125l-2.59375 -5.875l1.109375 0l1.921875 4.546875l0.09375 0l-0.53125 1.328125z" fill-rule="nonzero"/>
    <path fill="#000000" fill-opacity="0.0" d="m123.198166 88.35433c0 -12.5 89.44882 -25.007874 178.89763 -25.0c89.44882 0.007873535 178.89764 12.531494 178.89764 25.062988" fill-rule="evenodd"/>
    <path stroke="#666666" stroke-width="2.0" stroke-linejoin="round" stroke-linecap="butt" d="m123.198166 88.35433c0 -12.5 89.44882 -25.007874 178.89763 -25.0c44.724426 0.0039367676 89.44882 3.1368103 122.99213 7.8351364c16.771667 2.3491669 30.748047 5.089691 40.531494 8.026146c1.2229309 0.36705017 2.3803406 0.737175 3.4695435 1.1099701c0.5445862 0.18640137 1.0720825 0.3734665 1.5822144 0.5611572c0.25509644 0.09384918 0.50579834 0.18785095 0.7521057 0.28199768l0.0052490234 0.0020446777" fill-rule="evenodd"/>
    <path fill="#666666" stroke="#666666" stroke-width="2.0" stroke-linecap="butt" d="m469.43362 83.8039l9.229309 2.8478012l-5.2395325 -8.114037z" fill-rule="evenodd"/>
    <path fill="#ffd966" d="m299.79803 24.094307l9.760681 21.225742l-4.0261536 2.5031013l12.294312 18.188507l-4.026184 3.037239l15.199371 30.452652l-25.776459 -23.337845l4.9159546 -3.2397156l-16.015747 -14.948788l5.738983 -4.6186943l-16.909973 -15.681911z" fill-rule="evenodd"/>
    <path stroke="#000000" stroke-width="1.0" stroke-linejoin="round" stroke-linecap="butt" d="m299.79803 24.094307l9.760681 21.225742l-4.0261536 2.5031013l12.294312 18.188507l-4.026184 3.037239l15.199371 30.452652l-25.776459 -23.337845l4.9159546 -3.2397156l-16.015747 -14.948788l5.738983 -4.6186943l-16.909973 -15.681911z" fill-rule="evenodd"/>
    <path fill="#000000" fill-opacity="0.0" d="m303.30447 24.094488l48.06299 0l0 29.102362l-48.06299 0z" fill-rule="evenodd"/>
    <path fill="#000000" d="m315.617 35.614487l0 -8.593748l2.59375 0q1.34375 0 2.3125 0.546875q0.96875 0.546875 1.5 1.515625q0.53125 0.96875 0.53125 2.234375q0 1.2656231 -0.53125 2.234373q-0.53125 0.953125 -1.5 1.515625q-0.96875 0.546875 -2.3125 0.546875l-2.59375 0zm1.015625 -0.96875l1.578125 0q1.0 0 1.734375 -0.390625q0.75 -0.390625 1.15625 -1.125q0.421875 -0.75 0.421875 -1.8124981q0 -1.0625 -0.421875 -1.796875q-0.40625 -0.75 -1.15625 -1.140625q-0.734375 -0.390625 -1.734375 -0.390625l-1.578125 0l0 6.656248zm9.162048 1.15625q-0.671875 0 -1.1875 -0.265625q-0.515625 -0.265625 -0.8125 -0.71875q-0.296875 -0.46875 -0.296875 -1.046875q0 -0.671875 0.34375 -1.125q0.34375 -0.46875 0.9375 -0.7031231q0.59375 -0.234375 1.296875 -0.234375q0.40625 0 0.75 0.0625q0.359375 0.0625 0.609375 0.15625q0.265625 0.09374809 0.390625 0.1718731l0 -0.3749981q0 -0.6875 -0.5 -1.09375q-0.484375 -0.421875 -1.1875 -0.421875q-0.5 0 -0.9375 0.234375q-0.4375 0.21875 -0.703125 0.609375l-0.765625 -0.578125q0.25 -0.359375 0.609375 -0.625q0.359375 -0.265625 0.8125 -0.40625q0.46875 -0.140625 0.984375 -0.140625q1.25 0 1.953125 0.671875q0.703125 0.65625 0.703125 1.765625l0 3.874998l-0.96875 0l0 -0.875l-0.046875 0q-0.15625 0.265625 -0.453125 0.515625q-0.28125 0.234375 -0.671875 0.390625q-0.390625 0.15625 -0.859375 0.15625zm0.09375 -0.890625q0.53125 0 0.96875 -0.265625q0.4375 -0.265625 0.703125 -0.703125q0.265625 -0.453125 0.265625 -0.984375q-0.28125 -0.1875 -0.703125 -0.296875q-0.40625 -0.125 -0.890625 -0.125q-0.875 0 -1.28125 0.359375q-0.40625 0.359375 -0.40625 0.875q0 0.515625 0.375 0.828125q0.390625 0.3125 0.96875 0.3125zm3.676422 -4.499998l0 -0.921875l1.140625 0l0 0.921875l-1.140625 0zm2.796875 5.296873q-0.78125 0 -1.25 -0.453125q-0.453125 -0.46875 -0.453125 -1.25l0 -6.234373l1.015625 0l0 5.984373q0 0.515625 0.203125 0.765625q0.21875 0.234375 0.640625 0.234375q0.1875 0 0.34375 -0.046875q0.171875 -0.046875 0.328125 -0.15625l0 1.0q-0.1875 0.078125 -0.390625 0.109375q-0.203125 0.046875 -0.4375 0.046875zm-0.75 -5.296873l0 -0.921875l1.5625 0l0 0.921875l-1.5625 0zm4.743042 5.390623q-0.671875 0 -1.1875 -0.265625q-0.515625 -0.265625 -0.8125 -0.71875q-0.296875 -0.46875 -0.296875 -1.046875q0 -0.671875 0.34375 -1.125q0.34375 -0.46875 0.9375 -0.7031231q0.59375 -0.234375 1.296875 -0.234375q0.40625 0 0.75 0.0625q0.359375 0.0625 0.609375 0.15625q0.265625 0.09374809 0.390625 0.1718731l0 -0.3749981q0 -0.6875 -0.5 -1.09375q-0.484375 -0.421875 -1.1875 -0.421875q-0.5 0 -0.9375 0.234375q-0.4375 0.21875 -0.703125 0.609375l-0.765625 -0.578125q0.25 -0.359375 0.609375 -0.625q0.359375 -0.265625 0.8125 -0.40625q0.46875 -0.140625 0.984375 -0.140625q1.25 0 1.953125 0.671875q0.703125 0.65625 0.703125 1.765625l0 3.874998l-0.96875 0l0 -0.875l-0.046875 0q-0.15625 0.265625 -0.453125 0.515625q-0.28125 0.234375 -0.671875 0.390625q-0.390625 0.15625 -0.859375 0.15625zm0.09375 -0.890625q0.53125 0 0.96875 -0.265625q0.4375 -0.265625 0.703125 -0.703125q0.265625 -0.453125 0.265625 -0.984375q-0.28125 -0.1875 -0.703125 -0.296875q-0.40625 -0.125 -0.890625 -0.125q-0.875 0 -1.28125 0.359375q-0.40625 0.359375 -0.40625 0.875q0 0.515625 0.375 0.828125q0.390625 0.3125 0.96875 0.3125z" fill-rule="nonzero"/>
    <path fill="#000000" d="m314.309 50.01449l0 -8.59375l4.96875 0l0 0.96875l-3.953125 0l0 7.625l-1.015625 0zm0.53125 -3.71875l0 -0.96875l4.046875 0l0 0.96875l-4.046875 0zm5.6136475 3.71875l0 -8.59375l1.015625 0l0 8.59375l-1.015625 0zm4.726776 0.1875q-1.125 0 -1.703125 -0.65625q-0.5625 -0.65625 -0.5625 -1.796875l0 -3.859375l1.015625 0l0 3.703125q0 0.90625 0.421875 1.296875q0.421875 0.390625 1.046875 0.390625q0.53125 0 0.921875 -0.28125q0.40625 -0.28125 0.609375 -0.71875q0.21875 -0.453125 0.21875 -0.921875l0 -3.46875l1.03125 0l0 6.125l-0.984375 0l0 -0.890625l-0.046875 0q-0.15625 0.296875 -0.46875 0.546875q-0.296875 0.234375 -0.6875 0.375q-0.390625 0.15625 -0.8125 0.15625zm6.6142883 0q-0.671875 0 -1.203125 -0.21875q-0.515625 -0.21875 -0.859375 -0.59375q-0.34375 -0.390625 -0.515625 -0.828125l0.921875 -0.40625q0.234375 0.546875 0.6875 0.859375q0.453125 0.296875 1.046875 0.296875q0.5625 0 0.9375 -0.21875q0.375 -0.234375 0.375 -0.6875q0 -0.28125 -0.15625 -0.453125q-0.15625 -0.1875 -0.453125 -0.3125q-0.296875 -0.140625 -0.734375 -0.25l-0.734375 -0.1875q-0.4375 -0.125 -0.828125 -0.34375q-0.375 -0.21875 -0.609375 -0.5625q-0.234375 -0.34375 -0.234375 -0.828125q0 -0.546875 0.3125 -0.9375q0.328125 -0.40625 0.859375 -0.609375q0.53125 -0.21875 1.125 -0.21875q0.53125 0 0.984375 0.15625q0.46875 0.140625 0.8125 0.4375q0.359375 0.296875 0.53125 0.734375l-0.875 0.40625q-0.234375 -0.46875 -0.625 -0.640625q-0.375 -0.1875 -0.84375 -0.1875q-0.5 0 -0.875 0.234375q-0.375 0.21875 -0.375 0.59375q0 0.390625 0.296875 0.59375q0.3125 0.1875 0.765625 0.296875l0.875 0.234375q0.90625 0.21875 1.359375 0.671875q0.453125 0.453125 0.453125 1.09375q0 0.578125 -0.328125 1.0q-0.3125 0.421875 -0.875 0.65625q-0.546875 0.21875 -1.21875 0.21875zm3.5270386 -0.1875l0 -8.59375l1.015625 0l0 2.53125l-0.046875 0.84375l0.046875 0q0.234375 -0.453125 0.78125 -0.765625q0.546875 -0.328125 1.203125 -0.328125q0.78125 0 1.28125 0.3125q0.515625 0.3125 0.765625 0.84375q0.25 0.53125 0.25 1.234375l0 3.921875l-1.015625 0l0 -3.765625q0 -0.59375 -0.21875 -0.9375q-0.203125 -0.359375 -0.546875 -0.515625q-0.34375 -0.171875 -0.75 -0.171875q-0.5 0 -0.90625 0.296875q-0.390625 0.28125 -0.625 0.734375q-0.21875 0.453125 -0.21875 0.953125l0 3.40625l-1.015625 0z" fill-rule="nonzero"/>
    <path fill="#000000" fill-opacity="0.0" d="m428.5748 156.06036l94.04727 0l0 33.921265l-94.04727 0z" fill-rule="evenodd"/>
    <path fill="#000000" d="m438.52792 176.58037l0 -8.59375l2.890625 0q0.71875 0 1.328125 0.328125q0.609375 0.328125 0.96875 0.90625q0.375 0.5625 0.375 1.3125q0 0.75 -0.375 1.328125q-0.359375 0.5625 -0.96875 0.890625q-0.609375 0.328125 -1.328125 0.328125l-2.359375 0l0 -0.96875l2.375 0q0.515625 0 0.875 -0.234375q0.359375 -0.234375 0.546875 -0.59375q0.203125 -0.359375 0.203125 -0.75q0 -0.390625 -0.203125 -0.75q-0.1875 -0.359375 -0.546875 -0.59375q-0.359375 -0.234375 -0.875 -0.234375l-1.890625 0l0 7.625l-1.015625 0zm8.413666 0.1875q-0.671875 0 -1.1875 -0.265625q-0.515625 -0.265625 -0.8125 -0.71875q-0.296875 -0.46875 -0.296875 -1.046875q0 -0.671875 0.34375 -1.125q0.34375 -0.46875 0.9375 -0.703125q0.59375 -0.234375 1.296875 -0.234375q0.40625 0 0.75 0.0625q0.359375 0.0625 0.609375 0.15625q0.265625 0.09375 0.390625 0.171875l0 -0.375q0 -0.6875 -0.5 -1.09375q-0.484375 -0.421875 -1.1875 -0.421875q-0.5 0 -0.9375 0.234375q-0.4375 0.21875 -0.703125 0.609375l-0.765625 -0.578125q0.25 -0.359375 0.609375 -0.625q0.359375 -0.265625 0.8125 -0.40625q0.46875 -0.140625 0.984375 -0.140625q1.25 0 1.953125 0.671875q0.703125 0.65625 0.703125 1.765625l0 3.875l-0.96875 0l0 -0.875l-0.046875 0q-0.15625 0.265625 -0.453125 0.515625q-0.28125 0.234375 -0.671875 0.390625q-0.390625 0.15625 -0.859375 0.15625zm0.09375 -0.890625q0.53125 0 0.96875 -0.265625q0.4375 -0.265625 0.703125 -0.703125q0.265625 -0.453125 0.265625 -0.984375q-0.28125 -0.1875 -0.703125 -0.296875q-0.40625 -0.125 -0.890625 -0.125q-0.875 0 -1.28125 0.359375q-0.40625 0.359375 -0.40625 0.875q0 0.515625 0.375 0.828125q0.390625 0.3125 0.96875 0.3125zm6.99704 3.484375q-0.78125 0 -1.34375 -0.265625q-0.5625 -0.25 -0.90625 -0.65625q-0.328125 -0.390625 -0.484375 -0.796875l0.9375 -0.390625q0.203125 0.5 0.65625 0.84375q0.46875 0.34375 1.140625 0.34375q0.953125 0 1.46875 -0.5625q0.515625 -0.546875 0.515625 -1.546875l0 -0.6875l-0.046875 0q-0.28125 0.453125 -0.828125 0.765625q-0.53125 0.296875 -1.265625 0.296875q-0.78125 0 -1.4375 -0.40625q-0.65625 -0.421875 -1.046875 -1.140625q-0.375 -0.71875 -0.375 -1.671875q0 -0.953125 0.375 -1.671875q0.390625 -0.734375 1.046875 -1.140625q0.65625 -0.40625 1.4375 -0.40625q0.734375 0 1.265625 0.3125q0.546875 0.296875 0.828125 0.75l0.046875 0l0 -0.875l0.96875 0l0 5.890625q0 1.015625 -0.390625 1.6875q-0.390625 0.671875 -1.0625 1.0q-0.65625 0.328125 -1.5 0.328125zm0 -3.578125q0.53125 0 0.984375 -0.265625q0.46875 -0.28125 0.734375 -0.796875q0.265625 -0.515625 0.265625 -1.234375q0 -0.75 -0.265625 -1.25q-0.265625 -0.515625 -0.734375 -0.78125q-0.453125 -0.265625 -0.984375 -0.265625q-0.546875 0 -1.0 0.28125q-0.453125 0.265625 -0.734375 0.78125q-0.28125 0.5 -0.28125 1.234375q0 0.734375 0.28125 1.25q0.28125 0.5 0.734375 0.78125q0.453125 0.265625 1.0 0.265625zm7.171295 0.984375q-0.890625 0 -1.578125 -0.40625q-0.6875 -0.421875 -1.078125 -1.15625q-0.390625 -0.734375 -0.390625 -1.671875q0 -0.875 0.359375 -1.609375q0.375 -0.75 1.03125 -1.203125q0.671875 -0.453125 1.578125 -0.453125q0.90625 0 1.5625 0.40625q0.65625 0.390625 1.0 1.109375q0.359375 0.703125 0.359375 1.609375q0 0.09375 -0.015625 0.1875q0 0.078125 -0.015625 0.125l-5.265625 0l0 -0.828125l4.21875 0q-0.015625 -0.25 -0.125 -0.546875q-0.09375 -0.296875 -0.3125 -0.546875q-0.21875 -0.265625 -0.5625 -0.421875q-0.34375 -0.171875 -0.84375 -0.171875q-0.609375 0 -1.046875 0.3125q-0.4375 0.296875 -0.671875 0.828125q-0.234375 0.53125 -0.234375 1.203125q0 0.78125 0.296875 1.296875q0.3125 0.515625 0.78125 0.765625q0.46875 0.25 0.984375 0.25q0.671875 0 1.109375 -0.3125q0.4375 -0.328125 0.703125 -0.796875l0.875 0.421875q-0.375 0.703125 -1.046875 1.15625q-0.671875 0.453125 -1.671875 0.453125zm6.344208 -5.390625l0 -0.921875l1.1875 0l0 0.921875l-1.1875 0zm1.125 5.203125l0 -6.78125q0 -0.5625 0.25 -0.984375q0.25 -0.4375 0.6875 -0.671875q0.453125 -0.25 1.0625 -0.25q0.21875 0 0.4375 0.046875q0.21875 0.03125 0.421875 0.09375l0 1.0q-0.234375 -0.09375 -0.453125 -0.140625q-0.203125 -0.046875 -0.390625 -0.046875q-0.4375 0 -0.71875 0.296875q-0.265625 0.28125 -0.265625 0.765625l0 6.671875l-1.03125 0zm0.96875 -5.203125l0 -0.921875l1.625 0l0 0.921875l-1.625 0zm4.3721313 5.390625q-0.671875 0 -1.1875 -0.265625q-0.515625 -0.265625 -0.8125 -0.71875q-0.296875 -0.46875 -0.296875 -1.046875q0 -0.671875 0.34375 -1.125q0.34375 -0.46875 0.9375 -0.703125q0.59375 -0.234375 1.296875 -0.234375q0.40625 0 0.75 0.0625q0.359375 0.0625 0.609375 0.15625q0.265625 0.09375 0.390625 0.171875l0 -0.375q0 -0.6875 -0.5 -1.09375q-0.484375 -0.421875 -1.1875 -0.421875q-0.5 0 -0.9375 0.234375q-0.4375 0.21875 -0.703125 0.609375l-0.765625 -0.578125q0.25 -0.359375 0.609375 -0.625q0.359375 -0.265625 0.8125 -0.40625q0.46875 -0.140625 0.984375 -0.140625q1.25 0 1.953125 0.671875q0.703125 0.65625 0.703125 1.765625l0 3.875l-0.96875 0l0 -0.875l-0.046875 0q-0.15625 0.265625 -0.453125 0.515625q-0.28125 0.234375 -0.671875 0.390625q-0.390625 0.15625 -0.859375 0.15625zm0.09375 -0.890625q0.53125 0 0.96875 -0.265625q0.4375 -0.265625 0.703125 -0.703125q0.265625 -0.453125 0.265625 -0.984375q-0.28125 -0.1875 -0.703125 -0.296875q-0.40625 -0.125 -0.890625 -0.125q-0.875 0 -1.28125 0.359375q-0.40625 0.359375 -0.40625 0.875q0 0.515625 0.375 0.828125q0.390625 0.3125 0.96875 0.3125zm6.52829 0.890625q-1.125 0 -1.703125 -0.65625q-0.5625 -0.65625 -0.5625 -1.796875l0 -3.859375l1.015625 0l0 3.703125q0 0.90625 0.421875 1.296875q0.421875 0.390625 1.046875 0.390625q0.53125 0 0.921875 -0.28125q0.40625 -0.28125 0.609375 -0.71875q0.21875 -0.453125 0.21875 -0.921875l0 -3.46875l1.03125 0l0 6.125l-0.984375 0l0 -0.890625l-0.046875 0q-0.15625 0.296875 -0.46875 0.546875q-0.296875 0.234375 -0.6875 0.375q-0.390625 0.15625 -0.8125 0.15625zm4.489319 -0.1875l0 -8.59375l1.015625 0l0 8.59375l-1.015625 0zm2.0548706 -5.203125l0 -0.921875l1.140625 0l0 0.921875l-1.140625 0zm2.796875 5.296875q-0.78125 0 -1.25 -0.453125q-0.453125 -0.46875 -0.453125 -1.25l0 -6.234375l1.015625 0l0 5.984375q0 0.515625 0.203125 0.765625q0.21875 0.234375 0.640625 0.234375q0.1875 0 0.34375 -0.046875q0.171875 -0.046875 0.328125 -0.15625l0 1.0q-0.1875 0.078125 -0.390625 0.109375q-0.203125 0.046875 -0.4375 0.046875zm-0.75 -5.296875l0 -0.921875l1.5625 0l0 0.921875l-1.5625 0z" fill-rule="nonzero"/>
    <path fill="#000000" fill-opacity="0.0" d="m480.9895 144.29134c0 12.5 -89.44882 24.992126 -178.89764 25.0c-89.44881 0.007873535 -178.89763 -12.468506 -178.89763 -24.937012" fill-rule="evenodd"/>
    <path stroke="#666666" stroke-width="2.0" stroke-linejoin="round" stroke-linecap="butt" d="m480.9895 144.29134c0 12.5 -89.44882 24.992126 -178.89764 25.0c-44.724396 0.0039367676 -89.44881 -3.1131897 -122.99213 -7.789856c-16.771652 -2.3383331 -30.748032 -5.066559 -40.531494 -7.9894867c-1.2229309 -0.36535645 -2.3803406 -0.73376465 -3.4695282 -1.1048431c-0.5445862 -0.18553162 -1.0720978 -0.37173462 -1.5822296 -0.558548l-0.73677063 -0.27496338" fill-rule="evenodd"/>
    <path fill="#666666" stroke="#666666" stroke-width="2.0" stroke-linecap="butt" d="m134.7671 148.93486l-9.237373 -2.8215485l5.262581 8.099106z" fill-rule="evenodd"/>
    <path fill="#cfe2f3" d="m233.95013 169.40945l0 0c0 -13.87236 11.7957 -25.118118 26.346466 -25.118118l0 0c6.987488 0 13.688812 2.6463623 18.62976 7.3569336c4.940918 4.710556 7.716675 11.099442 7.716675 17.761185l0 0c0 13.872345 -11.795715 25.118103 -26.346436 25.118103l0 0c-14.550766 0 -26.346466 -11.245758 -26.346466 -25.118103zm41.1037 7.689987l0 0c3.6923523 -6.0946198 2.594513 -13.719223 -2.692749 -18.701752c-5.287262 -4.9825287 -13.489899 -6.1223145 -20.119492 -2.7956543zm-29.514496 -15.37999l0 0c-3.6923523 6.0946198 -2.5945282 13.719223 2.692749 18.701752c5.287277 4.9825287 13.489899 6.1223145 20.119507 2.7956696z" fill-rule="evenodd"/>
    <path stroke="#000000" stroke-width="1.0" stroke-linejoin="round" stroke-linecap="butt" d="m233.95013 169.40945l0 0c0 -13.87236 11.7957 -25.118118 26.346466 -25.118118l0 0c6.987488 0 13.688812 2.6463623 18.62976 7.3569336c4.940918 4.710556 7.716675 11.099442 7.716675 17.761185l0 0c0 13.872345 -11.795715 25.118103 -26.346436 25.118103l0 0c-14.550766 0 -26.346466 -11.245758 -26.346466 -25.118103zm41.1037 7.689987l0 0c3.6923523 -6.0946198 2.594513 -13.719223 -2.692749 -18.701752c-5.287262 -4.9825287 -13.489899 -6.1223145 -20.119492 -2.7956543zm-29.514496 -15.37999l0 0c-3.6923523 6.0946198 -2.5945282 13.719223 2.692749 18.701752c5.287277 4.9825287 13.489899 6.1223145 20.119507 2.7956696z" fill-rule="evenodd"/>
    <path fill="#ffd966" d="m322.14447 131.70586l9.760712 21.225739l-4.026184 2.5030975l12.294312 18.188507l-4.026184 3.0372467l15.199402 30.452652l-25.776459 -23.337845l4.9159546 -3.2397156l-16.015747 -14.9487915l5.7389526 -4.618698l-16.909943 -15.6819z" fill-rule="evenodd"/>
    <path stroke="#000000" stroke-width="1.0" stroke-linejoin="round" stroke-linecap="butt" d="m322.14447 131.70586l9.760712 21.225739l-4.026184 2.5030975l12.294312 18.188507l-4.026184 3.0372467l15.199402 30.452652l-25.776459 -23.337845l4.9159546 -3.2397156l-16.015747 -14.9487915l5.7389526 -4.618698l-16.909943 -15.6819z" fill-rule="evenodd"/>
    <path fill="#000000" fill-opacity="0.0" d="m329.0 131.70604l48.06299 0l0 29.102356l-48.06299 0z" fill-rule="evenodd"/>
    <path fill="#000000" d="m337.66974 143.41354q-0.953125 0 -1.765625 -0.328125q-0.8125 -0.34375 -1.421875 -0.953125q-0.59375 -0.609375 -0.9375 -1.421875q-0.328125 -0.828125 -0.328125 -1.78125q0 -0.953125 0.328125 -1.765625q0.34375 -0.828125 0.9375 -1.421875q0.609375 -0.609375 1.421875 -0.953125q0.8125 -0.34375 1.765625 -0.34375q0.65625 0 1.21875 0.171875q0.578125 0.15625 1.046875 0.46875q0.484375 0.3125 0.875 0.765625l-0.734375 0.703125q-0.328125 -0.390625 -0.6875 -0.640625q-0.359375 -0.265625 -0.796875 -0.375q-0.421875 -0.125 -0.921875 -0.125q-0.921875 0 -1.703125 0.4375q-0.78125 0.421875 -1.25 1.21875q-0.46875 0.78125 -0.46875 1.859375q0 1.0625 0.46875 1.859375q0.46875 0.796875 1.25 1.234375q0.78125 0.421875 1.703125 0.421875q0.828125 0 1.484375 -0.34375q0.65625 -0.34375 1.15625 -0.9375l0.75 0.71875q-0.375 0.4375 -0.90625 0.796875q-0.515625 0.34375 -1.140625 0.546875q-0.625 0.1875 -1.34375 0.1875zm7.410187 0q-0.921875 0 -1.640625 -0.421875q-0.703125 -0.4375 -1.109375 -1.171875q-0.390625 -0.734375 -0.390625 -1.65625q0 -0.90625 0.390625 -1.640625q0.40625 -0.75 1.109375 -1.171875q0.71875 -0.4375 1.640625 -0.4375q0.921875 0 1.625 0.4375q0.71875 0.4375 1.109375 1.1875q0.40625 0.734375 0.40625 1.625q0 0.921875 -0.40625 1.65625q-0.390625 0.734375 -1.109375 1.171875q-0.703125 0.421875 -1.625 0.421875zm0 -0.921875q0.546875 0 1.03125 -0.265625q0.5 -0.28125 0.796875 -0.796875q0.296875 -0.53125 0.296875 -1.265625q0 -0.734375 -0.296875 -1.25q-0.296875 -0.53125 -0.796875 -0.796875q-0.484375 -0.28125 -1.03125 -0.28125q-0.546875 0 -1.046875 0.28125q-0.484375 0.265625 -0.796875 0.796875q-0.296875 0.515625 -0.296875 1.25q0 0.734375 0.296875 1.265625q0.3125 0.515625 0.796875 0.796875q0.5 0.265625 1.046875 0.265625zm4.3155518 0.734375l0 -6.125l0.96875 0l0 0.90625l0.046875 0q0.234375 -0.4375 0.78125 -0.765625q0.546875 -0.328125 1.203125 -0.328125q1.125 0 1.6875 0.65625q0.578125 0.65625 0.578125 1.734375l0 3.921875l-1.03125 0l0 -3.765625q0 -0.890625 -0.421875 -1.25q-0.421875 -0.375 -1.09375 -0.375q-0.5 0 -0.890625 0.28125q-0.375 0.28125 -0.59375 0.734375q-0.21875 0.4375 -0.21875 0.9375l0 3.4375l-1.015625 0zm6.0749207 -5.203125l0 -0.921875l1.140625 0l0 0.921875l-1.140625 0zm2.796875 5.296875q-0.78125 0 -1.25 -0.453125q-0.453125 -0.46875 -0.453125 -1.25l0 -6.234375l1.015625 0l0 5.984375q0 0.515625 0.203125 0.765625q0.21875 0.234375 0.640625 0.234375q0.1875 0 0.34375 -0.046875q0.171875 -0.046875 0.328125 -0.15625l0 1.0q-0.1875 0.078125 -0.390625 0.109375q-0.203125 0.046875 -0.4375 0.046875zm-0.75 -5.296875l0 -0.921875l1.5625 0l0 0.921875l-1.5625 0zm2.774292 5.203125l0 -6.125l0.96875 0l0 0.984375l0.046875 0q0.125 -0.34375 0.40625 -0.59375q0.28125 -0.265625 0.640625 -0.40625q0.375 -0.15625 0.734375 -0.15625q0.265625 0 0.421875 0.03125q0.15625 0.03125 0.296875 0.078125l0 1.109375q-0.203125 -0.09375 -0.421875 -0.140625q-0.21875 -0.046875 -0.453125 -0.046875q-0.4375 0 -0.8125 0.25q-0.375 0.25 -0.59375 0.671875q-0.21875 0.421875 -0.21875 0.921875l0 3.421875l-1.015625 0zm7.012512 0.1875q-0.921875 0 -1.640625 -0.421875q-0.703125 -0.4375 -1.109375 -1.171875q-0.390625 -0.734375 -0.390625 -1.65625q0 -0.90625 0.390625 -1.640625q0.40625 -0.75 1.109375 -1.171875q0.71875 -0.4375 1.640625 -0.4375q0.921875 0 1.625 0.4375q0.71875 0.4375 1.109375 1.1875q0.40625 0.734375 0.40625 1.625q0 0.921875 -0.40625 1.65625q-0.390625 0.734375 -1.109375 1.171875q-0.703125 0.421875 -1.625 0.421875zm0 -0.921875q0.546875 0 1.03125 -0.265625q0.5 -0.28125 0.796875 -0.796875q0.296875 -0.53125 0.296875 -1.265625q0 -0.734375 -0.296875 -1.25q-0.296875 -0.53125 -0.796875 -0.796875q-0.484375 -0.28125 -1.03125 -0.28125q-0.546875 0 -1.046875 0.28125q-0.484375 0.265625 -0.796875 0.796875q-0.296875 0.515625 -0.296875 1.25q0 0.734375 0.296875 1.265625q0.3125 0.515625 0.796875 0.796875q0.5 0.265625 1.046875 0.265625zm4.3155518 0.734375l0 -8.59375l1.015625 0l0 8.59375l-1.015625 0z" fill-rule="nonzero"/>
    <path fill="#000000" d="m340.00452 157.62604l0 -8.59375l4.96875 0l0 0.96875l-3.953125 0l0 7.625l-1.015625 0zm0.53125 -3.71875l0 -0.96875l4.046875 0l0 0.96875l-4.046875 0zm5.613678 3.71875l0 -8.59375l1.015625 0l0 8.59375l-1.015625 0zm4.7267456 0.1875q-1.125 0 -1.703125 -0.65625q-0.5625 -0.65625 -0.5625 -1.796875l0 -3.859375l1.015625 0l0 3.703125q0 0.90625 0.421875 1.296875q0.421875 0.390625 1.046875 0.390625q0.53125 0 0.921875 -0.28125q0.40625 -0.28125 0.609375 -0.71875q0.21875 -0.453125 0.21875 -0.921875l0 -3.46875l1.03125 0l0 6.125l-0.984375 0l0 -0.890625l-0.046875 0q-0.15625 0.296875 -0.46875 0.546875q-0.296875 0.234375 -0.6875 0.375q-0.390625 0.15625 -0.8125 0.15625zm6.614319 0q-0.671875 0 -1.203125 -0.21875q-0.515625 -0.21875 -0.859375 -0.59375q-0.34375 -0.390625 -0.515625 -0.828125l0.921875 -0.40625q0.234375 0.546875 0.6875 0.859375q0.453125 0.296875 1.046875 0.296875q0.5625 0 0.9375 -0.21875q0.375 -0.234375 0.375 -0.6875q0 -0.28125 -0.15625 -0.453125q-0.15625 -0.1875 -0.453125 -0.3125q-0.296875 -0.140625 -0.734375 -0.25l-0.734375 -0.1875q-0.4375 -0.125 -0.828125 -0.34375q-0.375 -0.21875 -0.609375 -0.5625q-0.234375 -0.34375 -0.234375 -0.828125q0 -0.546875 0.3125 -0.9375q0.328125 -0.40625 0.859375 -0.609375q0.53125 -0.21875 1.125 -0.21875q0.53125 0 0.984375 0.15625q0.46875 0.140625 0.8125 0.4375q0.359375 0.296875 0.53125 0.734375l-0.875 0.40625q-0.234375 -0.46875 -0.625 -0.640625q-0.375 -0.1875 -0.84375 -0.1875q-0.5 0 -0.875 0.234375q-0.375 0.21875 -0.375 0.59375q0 0.390625 0.296875 0.59375q0.3125 0.1875 0.765625 0.296875l0.875 0.234375q0.90625 0.21875 1.359375 0.671875q0.453125 0.453125 0.453125 1.09375q0 0.578125 -0.328125 1.0q-0.3125 0.421875 -0.875 0.65625q-0.546875 0.21875 -1.21875 0.21875zm3.5270386 -0.1875l0 -8.59375l1.015625 0l0 2.53125l-0.046875 0.84375l0.046875 0q0.234375 -0.453125 0.78125 -0.765625q0.546875 -0.328125 1.203125 -0.328125q0.78125 0 1.28125 0.3125q0.515625 0.3125 0.765625 0.84375q0.25 0.53125 0.25 1.234375l0 3.921875l-1.015625 0l0 -3.765625q0 -0.59375 -0.21875 -0.9375q-0.203125 -0.359375 -0.546875 -0.515625q-0.34375 -0.171875 -0.75 -0.171875q-0.5 0 -0.90625 0.296875q-0.390625 0.28125 -0.625 0.734375q-0.21875 0.453125 -0.21875 0.953125l0 3.40625l-1.015625 0z" fill-rule="nonzero"/>
    <path fill="#000000" fill-opacity="0.0" d="m156.23097 189.98163l214.39369 0l0 33.921265l-214.39369 0z" fill-rule="evenodd"/>
    <path fill="#000000" d="m226.94328 210.68913q-0.625 0 -1.234375 -0.265625q-0.609375 -0.265625 -1.078125 -0.78125q-0.46875 -0.515625 -0.6875 -1.28125l0.96875 -0.390625q0.21875 0.75 0.75 1.25q0.546875 0.5 1.3125 0.5q0.484375 0 0.875 -0.171875q0.40625 -0.171875 0.640625 -0.5q0.25 -0.34375 0.25 -0.828125q0 -0.4375 -0.203125 -0.734375q-0.203125 -0.296875 -0.625 -0.53125q-0.421875 -0.234375 -1.03125 -0.453125l-0.546875 -0.1875q-0.359375 -0.125 -0.734375 -0.3125q-0.359375 -0.1875 -0.671875 -0.453125q-0.296875 -0.28125 -0.484375 -0.65625q-0.171875 -0.375 -0.171875 -0.890625q0 -0.625 0.328125 -1.140625q0.34375 -0.515625 0.921875 -0.828125q0.59375 -0.3125 1.359375 -0.3125q0.8125 0 1.359375 0.296875q0.546875 0.28125 0.859375 0.6875q0.3125 0.40625 0.421875 0.734375l-0.9375 0.421875q-0.078125 -0.265625 -0.28125 -0.53125q-0.203125 -0.265625 -0.546875 -0.453125q-0.34375 -0.1875 -0.859375 -0.1875q-0.421875 0 -0.796875 0.171875q-0.359375 0.171875 -0.578125 0.46875q-0.21875 0.28125 -0.21875 0.671875q0 0.53125 0.421875 0.84375q0.4375 0.3125 1.171875 0.5625l0.5625 0.203125q0.390625 0.125 0.78125 0.328125q0.40625 0.1875 0.75 0.484375q0.359375 0.296875 0.578125 0.734375q0.21875 0.4375 0.21875 1.046875q0 0.671875 -0.265625 1.140625q-0.265625 0.46875 -0.6875 0.78125q-0.40625 0.296875 -0.90625 0.421875q-0.5 0.140625 -0.984375 0.140625zm3.3131714 -5.390625l0 -0.921875l1.140625 0l0 0.921875l-1.140625 0zm2.796875 5.296875q-0.78125 0 -1.25 -0.453125q-0.453125 -0.46875 -0.453125 -1.25l0 -6.234375l1.015625 0l0 5.984375q0 0.515625 0.203125 0.765625q0.21875 0.234375 0.640625 0.234375q0.1875 0 0.34375 -0.046875q0.171875 -0.046875 0.328125 -0.15625l0 1.0q-0.1875 0.078125 -0.390625 0.109375q-0.203125 0.046875 -0.4375 0.046875zm-0.75 -5.296875l0 -0.921875l1.5625 0l0 0.921875l-1.5625 0zm4.9930267 5.390625q-1.125 0 -1.703125 -0.65625q-0.5625 -0.65625 -0.5625 -1.796875l0 -3.859375l1.015625 0l0 3.703125q0 0.90625 0.421875 1.296875q0.421875 0.390625 1.046875 0.390625q0.53125 0 0.921875 -0.28125q0.40625 -0.28125 0.609375 -0.71875q0.21875 -0.453125 0.21875 -0.921875l0 -3.46875l1.03125 0l0 6.125l-0.984375 0l0 -0.890625l-0.046875 0q-0.15625 0.296875 -0.46875 0.546875q-0.296875 0.234375 -0.6875 0.375q-0.390625 0.15625 -0.8125 0.15625zm4.4893036 -0.1875l0 -6.125l0.96875 0l0 0.90625l0.046875 0q0.234375 -0.4375 0.78125 -0.765625q0.546875 -0.328125 1.203125 -0.328125q1.125 0 1.6875 0.65625q0.578125 0.65625 0.578125 1.734375l0 3.921875l-1.03125 0l0 -3.765625q0 -0.890625 -0.421875 -1.25q-0.421875 -0.375 -1.09375 -0.375q-0.5 0 -0.890625 0.28125q-0.375 0.28125 -0.59375 0.734375q-0.21875 0.4375 -0.21875 0.9375l0 3.4375l-1.015625 0zm9.695206 0l0 -8.59375l1.015625 0l0 8.59375l-1.015625 0zm0.53125 -3.90625l0 -0.984375l5.140625 0l0 0.984375l-5.140625 0zm4.90625 3.90625l0 -8.59375l1.015625 0l0 8.59375l-1.015625 0zm4.633301 0l0 -7.984375l1.03125 0l0 7.984375l-1.03125 0zm-2.40625 -7.625l0 -0.96875l5.828125 0l0 0.96875l-5.828125 0zm12.2221985 7.8125q-0.625 0 -1.234375 -0.265625q-0.609375 -0.265625 -1.078125 -0.78125q-0.46875 -0.515625 -0.6875 -1.28125l0.96875 -0.390625q0.21875 0.75 0.75 1.25q0.546875 0.5 1.3125 0.5q0.484375 0 0.875 -0.171875q0.40625 -0.171875 0.640625 -0.5q0.25 -0.34375 0.25 -0.828125q0 -0.4375 -0.203125 -0.734375q-0.203125 -0.296875 -0.625 -0.53125q-0.421875 -0.234375 -1.03125 -0.453125l-0.546875 -0.1875q-0.359375 -0.125 -0.734375 -0.3125q-0.359375 -0.1875 -0.671875 -0.453125q-0.296875 -0.28125 -0.484375 -0.65625q-0.171875 -0.375 -0.171875 -0.890625q0 -0.625 0.328125 -1.140625q0.34375 -0.515625 0.921875 -0.828125q0.59375 -0.3125 1.359375 -0.3125q0.8125 0 1.359375 0.296875q0.546875 0.28125 0.859375 0.6875q0.3125 0.40625 0.421875 0.734375l-0.9375 0.421875q-0.078125 -0.265625 -0.28125 -0.53125q-0.203125 -0.265625 -0.546875 -0.453125q-0.34375 -0.1875 -0.859375 -0.1875q-0.421875 0 -0.796875 0.171875q-0.359375 0.171875 -0.578125 0.46875q-0.21875 0.28125 -0.21875 0.671875q0 0.53125 0.421875 0.84375q0.4375 0.3125 1.171875 0.5625l0.5625 0.203125q0.390625 0.125 0.78125 0.328125q0.40625 0.1875 0.75 0.484375q0.359375 0.296875 0.578125 0.734375q0.21875 0.4375 0.21875 1.046875q0 0.671875 -0.265625 1.140625q-0.265625 0.46875 -0.6875 0.78125q-0.40625 0.296875 -0.90625 0.421875q-0.5 0.140625 -0.984375 0.140625zm4.0663147 -0.1875l0 -6.125l1.015625 0l0 6.125l-1.015625 0zm0.5 -7.25q-0.296875 0 -0.515625 -0.21875q-0.21875 -0.21875 -0.21875 -0.515625q0 -0.3125 0.21875 -0.515625q0.21875 -0.21875 0.515625 -0.21875q0.3125 0 0.515625 0.21875q0.21875 0.203125 0.21875 0.515625q0 0.296875 -0.21875 0.515625q-0.203125 0.21875 -0.515625 0.21875zm5.1173706 7.4375q-0.5 0 -0.90625 -0.15625q-0.40625 -0.15625 -0.71875 -0.40625q-0.296875 -0.25 -0.46875 -0.53125l-0.046875 0l0 0.90625l-0.96875 0l0 -8.59375l1.015625 0l0 2.53125l-0.046875 0.859375l0.046875 0q0.171875 -0.296875 0.46875 -0.546875q0.3125 -0.25 0.71875 -0.40625q0.40625 -0.15625 0.90625 -0.15625q0.828125 0 1.484375 0.421875q0.671875 0.421875 1.046875 1.15625q0.390625 0.71875 0.390625 1.671875q0 0.953125 -0.390625 1.6875q-0.375 0.734375 -1.046875 1.15625q-0.65625 0.40625 -1.484375 0.40625zm-0.109375 -0.921875q0.515625 0 0.984375 -0.28125q0.46875 -0.28125 0.75 -0.8125q0.28125 -0.53125 0.28125 -1.234375q0 -0.71875 -0.28125 -1.234375q-0.28125 -0.53125 -0.75 -0.8125q-0.46875 -0.28125 -0.984375 -0.28125q-0.53125 0 -1.0 0.28125q-0.453125 0.28125 -0.75 0.8125q-0.28125 0.515625 -0.28125 1.234375q0 0.71875 0.28125 1.25q0.296875 0.515625 0.75 0.796875q0.46875 0.28125 1.0 0.28125zm4.2000732 0.734375l0 -8.59375l1.015625 0l0 8.59375l-1.015625 0zm2.5079956 0l0 -6.125l1.015625 0l0 6.125l-1.015625 0zm0.5 -7.25q-0.296875 0 -0.515625 -0.21875q-0.21875 -0.21875 -0.21875 -0.515625q0 -0.3125 0.21875 -0.515625q0.21875 -0.21875 0.515625 -0.21875q0.3125 0 0.515625 0.21875q0.21875 0.203125 0.21875 0.515625q0 0.296875 -0.21875 0.515625q-0.203125 0.21875 -0.515625 0.21875zm2.0080261 7.25l0 -6.125l0.96875 0l0 0.90625l0.046875 0q0.234375 -0.4375 0.78125 -0.765625q0.546875 -0.328125 1.203125 -0.328125q1.125 0 1.6875 0.65625q0.578125 0.65625 0.578125 1.734375l0 3.921875l-1.03125 0l0 -3.765625q0 -0.890625 -0.421875 -1.25q-0.421875 -0.375 -1.09375 -0.375q-0.5 0 -0.890625 0.28125q-0.375 0.28125 -0.59375 0.734375q-0.21875 0.4375 -0.21875 0.9375l0 3.4375l-1.015625 0zm9.395538 2.78125q-0.78125 0 -1.34375 -0.265625q-0.5625 -0.25 -0.90625 -0.65625q-0.328125 -0.390625 -0.484375 -0.796875l0.9375 -0.390625q0.203125 0.5 0.65625 0.84375q0.46875 0.34375 1.140625 0.34375q0.953125 0 1.46875 -0.5625q0.515625 -0.546875 0.515625 -1.546875l0 -0.6875l-0.046875 0q-0.28125 0.453125 -0.828125 0.765625q-0.53125 0.296875 -1.265625 0.296875q-0.78125 0 -1.4375 -0.40625q-0.65625 -0.421875 -1.046875 -1.140625q-0.375 -0.71875 -0.375 -1.671875q0 -0.953125 0.375 -1.671875q0.390625 -0.734375 1.046875 -1.140625q0.65625 -0.40625 1.4375 -0.40625q0.734375 0 1.265625 0.3125q0.546875 0.296875 0.828125 0.75l0.046875 0l0 -0.875l0.96875 0l0 5.890625q0 1.015625 -0.390625 1.6875q-0.390625 0.671875 -1.0625 1.0q-0.65625 0.328125 -1.5 0.328125zm0 -3.578125q0.53125 0 0.984375 -0.265625q0.46875 -0.28125 0.734375 -0.796875q0.265625 -0.515625 0.265625 -1.234375q0 -0.75 -0.265625 -1.25q-0.265625 -0.515625 -0.734375 -0.78125q-0.453125 -0.265625 -0.984375 -0.265625q-0.546875 0 -1.0 0.28125q-0.453125 0.265625 -0.734375 0.78125q-0.28125 0.5 -0.28125 1.234375q0 0.734375 0.28125 1.25q0.28125 0.5 0.734375 0.78125q0.453125 0.265625 1.0 0.265625z" fill-rule="nonzero"/>
  </g>
</svg>
